# MagicaVoxel @ Ephtracy

# group
o 

# material
mtllib ammo.mtl
usemtl palette

# normals
vn -1 0 0
vn 1 0 0
vn 0 0 1
vn 0 0 -1
vn 0 -1 0
vn 0 1 0

# texcoords
vt 0.185547 0.5
vt 0.373047 0.5
vt 0.654297 0.5
vt 0.978516 0.5
vt 0.982422 0.5

# verts
v 0.6 2.2 -1.3
v 0.6 2.2 -1.6
v 0.6 2.4 -1.3
v 0.6 2.4 -1.6
v 0.7 2.2 -1.2
v 0.7 2.2 -1.3
v 0.7 2.2 -1.6
v 0.7 2.2 -1.7
v 0.7 2.4 -1.2
v 0.7 2.4 -1.3
v 0.7 2.4 -1.6
v 0.7 2.4 -1.7
v 0.8 2.2 -1.1
v 0.8 2.2 -1.2
v 0.8 2.2 -1.7
v 0.8 2.2 -1.8
v 0.8 2.4 -1.1
v 0.8 2.4 -1.2
v 0.8 2.4 -1.7
v 0.8 2.4 -1.8
v 0.9 2 -1
v 0.9 2 -1.1
v 0.9 2 -1.8
v 0.9 2 -1.9
v 0.9 2.1 -1
v 0.9 2.1 -1.1
v 0.9 2.1 -1.8
v 0.9 2.1 -1.9
v 0.9 2.2 -1.1
v 0.9 2.2 -1.2
v 0.9 2.2 -1.7
v 0.9 2.2 -1.8
v 0.9 2.4 -1.1
v 0.9 2.4 -1.2
v 0.9 2.4 -1.7
v 0.9 2.4 -1.8
v 0.9 2.5 -1
v 0.9 2.5 -1.1
v 0.9 2.5 -1.8
v 0.9 2.5 -1.9
v 0.9 2.6 -1
v 0.9 2.6 -1.1
v 0.9 2.6 -1.8
v 0.9 2.6 -1.9
v 0.9 2.7 -1.1
v 0.9 2.7 -1.8
v 1.1 2.7 -1.3
v 1.1 2.7 -1.6
v 1.1 2.8 -1.3
v 1.1 2.8 -1.6
v 1.2 2.8 -1.3
v 1.2 2.8 -1.6
v 1.2 2.9 -1.3
v 1.2 2.9 -1.6
v 1.3 2.9 -1.3
v 1.3 2.9 -1.6
v 1.3 3 -1.3
v 1.3 3 -1.6
v 2.8 2.8 -1.3
v 2.8 2.8 -1.6
v 2.8 2.9 -1.3
v 2.8 2.9 -1.6
v 2.9 2.7 -1.3
v 2.9 2.7 -1.6
v 2.9 2.8 -1.3
v 2.9 2.8 -1.6
v 3.3 2.2 -1.2
v 3.3 2.2 -1.3
v 3.3 2.2 -1.6
v 3.3 2.2 -1.7
v 3.3 2.4 -1.2
v 3.3 2.4 -1.3
v 3.3 2.4 -1.6
v 3.3 2.4 -1.7
v 3.4 2.2 -1.3
v 3.4 2.2 -1.6
v 3.4 2.4 -1.3
v 3.4 2.4 -1.6
v 0.7 2.2 -1.3
v 0.7 2.2 -1.6
v 0.7 2.4 -1.3
v 0.7 2.4 -1.6
v 0.8 2.2 -1.2
v 0.8 2.2 -1.3
v 0.8 2.2 -1.6
v 0.8 2.2 -1.7
v 0.8 2.4 -1.2
v 0.8 2.4 -1.3
v 0.8 2.4 -1.6
v 0.8 2.4 -1.7
v 1.2 2.7 -1.3
v 1.2 2.7 -1.6
v 1.2 2.8 -1.3
v 1.2 2.8 -1.6
v 1.3 2.8 -1.3
v 1.3 2.8 -1.6
v 1.3 2.9 -1.3
v 1.3 2.9 -1.6
v 2.8 2.9 -1.3
v 2.8 2.9 -1.6
v 2.8 3 -1.3
v 2.8 3 -1.6
v 2.9 2.8 -1.3
v 2.9 2.8 -1.6
v 2.9 2.9 -1.3
v 2.9 2.9 -1.6
v 3 2.7 -1.3
v 3 2.7 -1.6
v 3 2.8 -1.3
v 3 2.8 -1.6
v 3.2 2 -1
v 3.2 2 -1.1
v 3.2 2 -1.8
v 3.2 2 -1.9
v 3.2 2.1 -1
v 3.2 2.1 -1.1
v 3.2 2.1 -1.8
v 3.2 2.1 -1.9
v 3.2 2.2 -1.1
v 3.2 2.2 -1.2
v 3.2 2.2 -1.7
v 3.2 2.2 -1.8
v 3.2 2.4 -1.1
v 3.2 2.4 -1.2
v 3.2 2.4 -1.7
v 3.2 2.4 -1.8
v 3.2 2.5 -1
v 3.2 2.5 -1.1
v 3.2 2.5 -1.8
v 3.2 2.5 -1.9
v 3.2 2.6 -1
v 3.2 2.6 -1.1
v 3.2 2.6 -1.8
v 3.2 2.6 -1.9
v 3.2 2.7 -1.1
v 3.2 2.7 -1.8
v 3.3 2.2 -1.1
v 3.3 2.2 -1.2
v 3.3 2.2 -1.7
v 3.3 2.2 -1.8
v 3.3 2.4 -1.1
v 3.3 2.4 -1.2
v 3.3 2.4 -1.7
v 3.3 2.4 -1.8
v 3.4 2.2 -1.2
v 3.4 2.2 -1.3
v 3.4 2.2 -1.6
v 3.4 2.2 -1.7
v 3.4 2.4 -1.2
v 3.4 2.4 -1.3
v 3.4 2.4 -1.6
v 3.4 2.4 -1.7
v 3.5 2.2 -1.3
v 3.5 2.2 -1.6
v 3.5 2.4 -1.3
v 3.5 2.4 -1.6
v 0.9 2 -1
v 0.9 2.1 -1
v 0.9 2.5 -1
v 0.9 2.6 -1
v 1 2 -1
v 1 2.1 -1
v 1 2.4 -1
v 1 2.5 -1
v 1 2.6 -1
v 1.1 2.1 -1
v 1.1 2.2 -1
v 1.1 2.3 -1
v 1.1 2.4 -1
v 1.1 2.5 -1
v 1.3 2.1 -1
v 1.3 2.2 -1
v 1.3 2.3 -1
v 1.3 2.4 -1
v 1.3 2.5 -1
v 1.4 2.1 -1
v 1.4 2.4 -1
v 1.5 2.1 -1
v 1.5 2.4 -1
v 1.6 2.1 -1
v 1.6 2.4 -1
v 1.6 2.5 -1
v 1.7 2.2 -1
v 1.7 2.4 -1
v 1.8 2.2 -1
v 1.8 2.4 -1
v 1.9 2.1 -1
v 1.9 2.4 -1
v 1.9 2.5 -1
v 1.9 2.6 -1
v 2 2.1 -1
v 2 2.4 -1
v 2 2.5 -1
v 2 2.6 -1
v 2.1 2.1 -1
v 2.1 2.4 -1
v 2.1 2.5 -1
v 2.1 2.6 -1
v 2.2 2.1 -1
v 2.2 2.4 -1
v 2.2 2.5 -1
v 2.2 2.6 -1
v 2.3 2.2 -1
v 2.3 2.4 -1
v 2.4 2.2 -1
v 2.4 2.4 -1
v 2.5 2.1 -1
v 2.5 2.4 -1
v 2.5 2.5 -1
v 2.6 2.1 -1
v 2.6 2.4 -1
v 2.7 2.2 -1
v 2.7 2.4 -1
v 2.8 2.1 -1
v 2.8 2.2 -1
v 2.8 2.4 -1
v 2.8 2.5 -1
v 3 2.1 -1
v 3 2.2 -1
v 3 2.4 -1
v 3 2.5 -1
v 3.1 2 -1
v 3.1 2.1 -1
v 3.1 2.2 -1
v 3.1 2.4 -1
v 3.1 2.5 -1
v 3.1 2.6 -1
v 3.2 2 -1
v 3.2 2.1 -1
v 3.2 2.5 -1
v 3.2 2.6 -1
v 0.8 2.2 -1.1
v 0.8 2.4 -1.1
v 0.9 2.2 -1.1
v 0.9 2.4 -1.1
v 0.9 2.6 -1.1
v 0.9 2.7 -1.1
v 1 2.6 -1.1
v 1.3 2.6 -1.1
v 1.3 2.7 -1.1
v 1.5 2.6 -1.1
v 1.5 2.7 -1.1
v 1.9 2.6 -1.1
v 1.9 2.7 -1.1
v 2 2.6 -1.1
v 2.1 2.6 -1.1
v 2.2 2.6 -1.1
v 2.2 2.7 -1.1
v 2.6 2.6 -1.1
v 2.6 2.7 -1.1
v 2.8 2.6 -1.1
v 2.8 2.7 -1.1
v 3.1 2.6 -1.1
v 3.2 2.2 -1.1
v 3.2 2.4 -1.1
v 3.2 2.6 -1.1
v 3.2 2.7 -1.1
v 3.3 2.2 -1.1
v 3.3 2.4 -1.1
v 0.7 2.2 -1.2
v 0.7 2.4 -1.2
v 0.8 2.2 -1.2
v 0.8 2.4 -1.2
v 3.3 2.2 -1.2
v 3.3 2.4 -1.2
v 3.4 2.2 -1.2
v 3.4 2.4 -1.2
v 0.6 2.2 -1.3
v 0.6 2.4 -1.3
v 0.7 2.2 -1.3
v 0.7 2.4 -1.3
v 1.1 2.7 -1.3
v 1.1 2.8 -1.3
v 1.2 2.7 -1.3
v 1.2 2.8 -1.3
v 1.2 2.9 -1.3
v 1.3 2.8 -1.3
v 1.3 2.9 -1.3
v 1.3 3 -1.3
v 2.8 2.8 -1.3
v 2.8 2.9 -1.3
v 2.8 3 -1.3
v 2.9 2.7 -1.3
v 2.9 2.8 -1.3
v 2.9 2.9 -1.3
v 3 2.7 -1.3
v 3 2.8 -1.3
v 3.4 2.2 -1.3
v 3.4 2.4 -1.3
v 3.5 2.2 -1.3
v 3.5 2.4 -1.3
v 0.7 2.2 -1.6
v 0.7 2.4 -1.6
v 0.8 2.2 -1.6
v 0.8 2.4 -1.6
v 3.3 2.2 -1.6
v 3.3 2.4 -1.6
v 3.4 2.2 -1.6
v 3.4 2.4 -1.6
v 0.8 2.2 -1.7
v 0.8 2.4 -1.7
v 0.9 2.2 -1.7
v 0.9 2.4 -1.7
v 3.2 2.2 -1.7
v 3.2 2.4 -1.7
v 3.3 2.2 -1.7
v 3.3 2.4 -1.7
v 0.8 2.2 -1.2
v 0.8 2.4 -1.2
v 0.9 2.2 -1.2
v 0.9 2.4 -1.2
v 3.2 2.2 -1.2
v 3.2 2.4 -1.2
v 3.3 2.2 -1.2
v 3.3 2.4 -1.2
v 0.7 2.2 -1.3
v 0.7 2.4 -1.3
v 0.8 2.2 -1.3
v 0.8 2.4 -1.3
v 3.3 2.2 -1.3
v 3.3 2.4 -1.3
v 3.4 2.2 -1.3
v 3.4 2.4 -1.3
v 0.6 2.2 -1.6
v 0.6 2.4 -1.6
v 0.7 2.2 -1.6
v 0.7 2.4 -1.6
v 1.1 2.7 -1.6
v 1.1 2.8 -1.6
v 1.2 2.7 -1.6
v 1.2 2.8 -1.6
v 1.2 2.9 -1.6
v 1.3 2.8 -1.6
v 1.3 2.9 -1.6
v 1.3 3 -1.6
v 2.8 2.8 -1.6
v 2.8 2.9 -1.6
v 2.8 3 -1.6
v 2.9 2.7 -1.6
v 2.9 2.8 -1.6
v 2.9 2.9 -1.6
v 3 2.7 -1.6
v 3 2.8 -1.6
v 3.4 2.2 -1.6
v 3.4 2.4 -1.6
v 3.5 2.2 -1.6
v 3.5 2.4 -1.6
v 0.7 2.2 -1.7
v 0.7 2.4 -1.7
v 0.8 2.2 -1.7
v 0.8 2.4 -1.7
v 3.3 2.2 -1.7
v 3.3 2.4 -1.7
v 3.4 2.2 -1.7
v 3.4 2.4 -1.7
v 0.8 2.2 -1.8
v 0.8 2.4 -1.8
v 0.9 2.2 -1.8
v 0.9 2.4 -1.8
v 0.9 2.6 -1.8
v 0.9 2.7 -1.8
v 1 2.6 -1.8
v 1.3 2.6 -1.8
v 1.3 2.7 -1.8
v 1.5 2.6 -1.8
v 1.5 2.7 -1.8
v 2.6 2.6 -1.8
v 2.6 2.7 -1.8
v 2.8 2.6 -1.8
v 2.8 2.7 -1.8
v 3.1 2.6 -1.8
v 3.2 2.2 -1.8
v 3.2 2.4 -1.8
v 3.2 2.6 -1.8
v 3.2 2.7 -1.8
v 3.3 2.2 -1.8
v 3.3 2.4 -1.8
v 0.9 2 -1.9
v 0.9 2.1 -1.9
v 0.9 2.5 -1.9
v 0.9 2.6 -1.9
v 1 2 -1.9
v 1 2.1 -1.9
v 1 2.5 -1.9
v 1 2.6 -1.9
v 3.1 2 -1.9
v 3.1 2.1 -1.9
v 3.1 2.5 -1.9
v 3.1 2.6 -1.9
v 3.2 2 -1.9
v 3.2 2.1 -1.9
v 3.2 2.5 -1.9
v 3.2 2.6 -1.9
v 0.9 2 -1
v 1 2 -1
v 3.1 2 -1
v 3.2 2 -1
v 0.9 2 -1.1
v 1 2 -1.1
v 3.1 2 -1.1
v 3.2 2 -1.1
v 0.9 2 -1.8
v 1 2 -1.8
v 3.1 2 -1.8
v 3.2 2 -1.8
v 0.9 2 -1.9
v 1 2 -1.9
v 3.1 2 -1.9
v 3.2 2 -1.9
v 0.8 2.2 -1.1
v 0.9 2.2 -1.1
v 3.2 2.2 -1.1
v 3.3 2.2 -1.1
v 0.7 2.2 -1.2
v 0.8 2.2 -1.2
v 0.9 2.2 -1.2
v 3.2 2.2 -1.2
v 3.3 2.2 -1.2
v 3.4 2.2 -1.2
v 0.6 2.2 -1.3
v 0.7 2.2 -1.3
v 0.8 2.2 -1.3
v 3.3 2.2 -1.3
v 3.4 2.2 -1.3
v 3.5 2.2 -1.3
v 0.6 2.2 -1.6
v 0.7 2.2 -1.6
v 0.8 2.2 -1.6
v 3.3 2.2 -1.6
v 3.4 2.2 -1.6
v 3.5 2.2 -1.6
v 0.7 2.2 -1.7
v 0.8 2.2 -1.7
v 0.9 2.2 -1.7
v 3.2 2.2 -1.7
v 3.3 2.2 -1.7
v 3.4 2.2 -1.7
v 0.8 2.2 -1.8
v 0.9 2.2 -1.8
v 3.2 2.2 -1.8
v 3.3 2.2 -1.8
v 1.2 2.8 -1.3
v 1.3 2.8 -1.3
v 2.8 2.8 -1.3
v 2.9 2.8 -1.3
v 1.2 2.8 -1.6
v 1.3 2.8 -1.6
v 2.8 2.8 -1.6
v 2.9 2.8 -1.6
v 1.3 2.9 -1.3
v 2.8 2.9 -1.3
v 1.3 2.9 -1.6
v 2.8 2.9 -1.6
v 0.8 2.4 -1.1
v 0.9 2.4 -1.1
v 3.2 2.4 -1.1
v 3.3 2.4 -1.1
v 0.7 2.4 -1.2
v 0.8 2.4 -1.2
v 0.9 2.4 -1.2
v 3.2 2.4 -1.2
v 3.3 2.4 -1.2
v 3.4 2.4 -1.2
v 0.6 2.4 -1.3
v 0.7 2.4 -1.3
v 0.8 2.4 -1.3
v 3.3 2.4 -1.3
v 3.4 2.4 -1.3
v 3.5 2.4 -1.3
v 0.6 2.4 -1.6
v 0.7 2.4 -1.6
v 0.8 2.4 -1.6
v 3.3 2.4 -1.6
v 3.4 2.4 -1.6
v 3.5 2.4 -1.6
v 0.7 2.4 -1.7
v 0.8 2.4 -1.7
v 0.9 2.4 -1.7
v 3.2 2.4 -1.7
v 3.3 2.4 -1.7
v 3.4 2.4 -1.7
v 0.8 2.4 -1.8
v 0.9 2.4 -1.8
v 3.2 2.4 -1.8
v 3.3 2.4 -1.8
v 0.9 2.6 -1
v 1 2.6 -1
v 1.9 2.6 -1
v 2 2.6 -1
v 2.1 2.6 -1
v 2.2 2.6 -1
v 3.1 2.6 -1
v 3.2 2.6 -1
v 0.9 2.6 -1.1
v 1 2.6 -1.1
v 1.3 2.6 -1.1
v 1.5 2.6 -1.1
v 1.9 2.6 -1.1
v 2 2.6 -1.1
v 2.1 2.6 -1.1
v 2.2 2.6 -1.1
v 2.6 2.6 -1.1
v 2.8 2.6 -1.1
v 3.1 2.6 -1.1
v 3.2 2.6 -1.1
v 0.9 2.6 -1.8
v 1 2.6 -1.8
v 1.3 2.6 -1.8
v 1.5 2.6 -1.8
v 2.6 2.6 -1.8
v 2.8 2.6 -1.8
v 3.1 2.6 -1.8
v 3.2 2.6 -1.8
v 0.9 2.6 -1.9
v 1 2.6 -1.9
v 3.1 2.6 -1.9
v 3.2 2.6 -1.9
v 0.9 2.7 -1.1
v 1.3 2.7 -1.1
v 1.5 2.7 -1.1
v 1.9 2.7 -1.1
v 2.2 2.7 -1.1
v 2.6 2.7 -1.1
v 2.8 2.7 -1.1
v 3.2 2.7 -1.1
v 1.9 2.7 -1.2
v 2.2 2.7 -1.2
v 1.1 2.7 -1.3
v 1.2 2.7 -1.3
v 2.9 2.7 -1.3
v 3 2.7 -1.3
v 1.1 2.7 -1.6
v 1.2 2.7 -1.6
v 2.9 2.7 -1.6
v 3 2.7 -1.6
v 0.9 2.7 -1.8
v 1.3 2.7 -1.8
v 1.5 2.7 -1.8
v 2.6 2.7 -1.8
v 2.8 2.7 -1.8
v 3.2 2.7 -1.8
v 1.1 2.8 -1.3
v 1.2 2.8 -1.3
v 2.9 2.8 -1.3
v 3 2.8 -1.3
v 1.1 2.8 -1.6
v 1.2 2.8 -1.6
v 2.9 2.8 -1.6
v 3 2.8 -1.6
v 1.2 2.9 -1.3
v 1.3 2.9 -1.3
v 2.8 2.9 -1.3
v 2.9 2.9 -1.3
v 1.2 2.9 -1.6
v 1.3 2.9 -1.6
v 2.8 2.9 -1.6
v 2.9 2.9 -1.6
v 1.3 3 -1.3
v 2.8 3 -1.3
v 1.3 3 -1.6
v 2.8 3 -1.6

# faces
f 3/4/1 2/4/1 1/4/1
f 4/4/1 2/4/1 3/4/1
f 9/4/1 6/4/1 5/4/1
f 10/4/1 6/4/1 9/4/1
f 11/4/1 8/4/1 7/4/1
f 12/4/1 8/4/1 11/4/1
f 17/5/1 14/5/1 13/5/1
f 18/5/1 14/5/1 17/5/1
f 19/5/1 16/5/1 15/5/1
f 20/5/1 16/5/1 19/5/1
f 25/5/1 22/5/1 21/5/1
f 26/3/1 23/3/1 22/3/1
f 26/5/1 22/5/1 25/5/1
f 27/5/1 24/5/1 23/5/1
f 27/3/1 23/3/1 26/3/1
f 28/5/1 24/5/1 27/5/1
f 29/3/1 26/3/1 25/3/1
f 29/3/1 27/3/1 26/3/1
f 29/3/1 28/3/1 27/3/1
f 30/3/1 28/3/1 29/3/1
f 31/3/1 28/3/1 30/3/1
f 32/3/1 28/3/1 31/3/1
f 33/3/1 29/3/1 25/3/1
f 34/3/1 31/3/1 30/3/1
f 35/3/1 31/3/1 34/3/1
f 36/3/1 28/3/1 32/3/1
f 37/3/1 35/3/1 34/3/1
f 37/3/1 36/3/1 35/3/1
f 37/3/1 33/3/1 25/3/1
f 37/3/1 34/3/1 33/3/1
f 38/3/1 36/3/1 37/3/1
f 39/3/1 28/3/1 36/3/1
f 39/3/1 36/3/1 38/3/1
f 40/3/1 28/3/1 39/3/1
f 41/5/1 38/5/1 37/5/1
f 42/3/1 39/3/1 38/3/1
f 42/5/1 38/5/1 41/5/1
f 43/5/1 40/5/1 39/5/1
f 43/3/1 39/3/1 42/3/1
f 44/5/1 40/5/1 43/5/1
f 45/3/1 43/3/1 42/3/1
f 46/3/1 43/3/1 45/3/1
f 49/5/1 48/5/1 47/5/1
f 50/5/1 48/5/1 49/5/1
f 53/4/1 52/4/1 51/4/1
f 54/4/1 52/4/1 53/4/1
f 57/4/1 56/4/1 55/4/1
f 58/4/1 56/4/1 57/4/1
f 61/4/1 60/4/1 59/4/1
f 62/4/1 60/4/1 61/4/1
f 65/5/1 64/5/1 63/5/1
f 66/5/1 64/5/1 65/5/1
f 71/4/1 68/4/1 67/4/1
f 72/4/1 68/4/1 71/4/1
f 73/4/1 70/4/1 69/4/1
f 74/4/1 70/4/1 73/4/1
f 77/4/1 76/4/1 75/4/1
f 78/4/1 76/4/1 77/4/1
f 79/4/2 80/4/2 81/4/2
f 81/4/2 80/4/2 82/4/2
f 83/4/2 84/4/2 87/4/2
f 87/4/2 84/4/2 88/4/2
f 85/4/2 86/4/2 89/4/2
f 89/4/2 86/4/2 90/4/2
f 91/5/2 92/5/2 93/5/2
f 93/5/2 92/5/2 94/5/2
f 95/4/2 96/4/2 97/4/2
f 97/4/2 96/4/2 98/4/2
f 99/4/2 100/4/2 101/4/2
f 101/4/2 100/4/2 102/4/2
f 103/4/2 104/4/2 105/4/2
f 105/4/2 104/4/2 106/4/2
f 107/5/2 108/5/2 109/5/2
f 109/5/2 108/5/2 110/5/2
f 111/5/2 112/5/2 115/5/2
f 112/3/2 113/3/2 116/3/2
f 115/5/2 112/5/2 116/5/2
f 113/5/2 114/5/2 117/5/2
f 116/3/2 113/3/2 117/3/2
f 117/5/2 114/5/2 118/5/2
f 115/3/2 116/3/2 119/3/2
f 116/3/2 117/3/2 119/3/2
f 117/3/2 118/3/2 119/3/2
f 119/3/2 118/3/2 120/3/2
f 120/3/2 118/3/2 121/3/2
f 121/3/2 118/3/2 122/3/2
f 115/3/2 119/3/2 123/3/2
f 120/3/2 121/3/2 124/3/2
f 124/3/2 121/3/2 125/3/2
f 122/3/2 118/3/2 126/3/2
f 124/3/2 125/3/2 127/3/2
f 125/3/2 126/3/2 127/3/2
f 115/3/2 123/3/2 127/3/2
f 123/3/2 124/3/2 127/3/2
f 127/3/2 126/3/2 128/3/2
f 126/3/2 118/3/2 129/3/2
f 128/3/2 126/3/2 129/3/2
f 129/3/2 118/3/2 130/3/2
f 127/5/2 128/5/2 131/5/2
f 128/3/2 129/3/2 132/3/2
f 131/5/2 128/5/2 132/5/2
f 129/5/2 130/5/2 133/5/2
f 132/3/2 129/3/2 133/3/2
f 133/5/2 130/5/2 134/5/2
f 132/3/2 133/3/2 135/3/2
f 135/3/2 133/3/2 136/3/2
f 137/5/2 138/5/2 141/5/2
f 141/5/2 138/5/2 142/5/2
f 139/5/2 140/5/2 143/5/2
f 143/5/2 140/5/2 144/5/2
f 145/4/2 146/4/2 149/4/2
f 149/4/2 146/4/2 150/4/2
f 147/4/2 148/4/2 151/4/2
f 151/4/2 148/4/2 152/4/2
f 153/4/2 154/4/2 155/4/2
f 155/4/2 154/4/2 156/4/2
f 161/5/3 158/5/3 157/5/3
f 162/3/3 159/3/3 158/3/3
f 162/5/3 158/5/3 161/5/3
f 163/3/3 159/3/3 162/3/3
f 164/5/3 160/5/3 159/5/3
f 164/3/3 159/3/3 163/3/3
f 165/5/3 160/5/3 164/5/3
f 166/1/3 163/1/3 162/1/3
f 166/3/3 162/3/3 161/3/3
f 167/1/3 163/1/3 166/1/3
f 168/1/3 163/1/3 167/1/3
f 169/3/3 165/3/3 164/3/3
f 169/1/3 163/1/3 168/1/3
f 169/3/3 164/3/3 163/3/3
f 170/3/3 165/3/3 169/3/3
f 171/3/3 167/3/3 166/3/3
f 171/3/3 166/3/3 161/3/3
f 172/1/3 168/1/3 167/1/3
f 172/3/3 167/3/3 171/3/3
f 173/3/3 169/3/3 168/3/3
f 173/1/3 168/1/3 172/1/3
f 174/1/3 170/1/3 169/1/3
f 174/3/3 169/3/3 173/3/3
f 175/3/3 165/3/3 170/3/3
f 175/1/3 170/1/3 174/1/3
f 176/3/3 171/3/3 161/3/3
f 176/1/3 174/1/3 173/1/3
f 176/1/3 173/1/3 172/1/3
f 176/1/3 172/1/3 171/1/3
f 177/3/3 175/3/3 174/3/3
f 177/1/3 174/1/3 176/1/3
f 178/3/3 176/3/3 161/3/3
f 178/3/3 177/3/3 176/3/3
f 179/3/3 175/3/3 177/3/3
f 179/3/3 177/3/3 178/3/3
f 180/3/3 178/3/3 161/3/3
f 180/1/3 179/1/3 178/1/3
f 181/3/3 175/3/3 179/3/3
f 181/1/3 179/1/3 180/1/3
f 182/3/3 165/3/3 175/3/3
f 182/3/3 175/3/3 181/3/3
f 183/3/3 181/3/3 180/3/3
f 184/1/3 182/1/3 181/1/3
f 184/3/3 181/3/3 183/3/3
f 185/3/3 183/3/3 180/3/3
f 185/1/3 184/1/3 183/1/3
f 186/1/3 182/1/3 184/1/3
f 186/1/3 184/1/3 185/1/3
f 187/3/3 180/3/3 161/3/3
f 187/3/3 185/3/3 180/3/3
f 187/3/3 186/3/3 185/3/3
f 188/1/3 182/1/3 186/1/3
f 188/3/3 186/3/3 187/3/3
f 189/3/3 165/3/3 182/3/3
f 189/1/3 182/1/3 188/1/3
f 190/3/3 165/3/3 189/3/3
f 191/1/3 188/1/3 187/1/3
f 191/3/3 187/3/3 161/3/3
f 192/3/3 189/3/3 188/3/3
f 192/1/3 188/1/3 191/1/3
f 193/4/3 190/4/3 189/4/3
f 193/3/3 189/3/3 192/3/3
f 194/4/3 190/4/3 193/4/3
f 195/3/3 192/3/3 191/3/3
f 195/3/3 191/3/3 161/3/3
f 195/3/3 193/3/3 192/3/3
f 196/3/3 193/3/3 195/3/3
f 197/5/3 194/5/3 193/5/3
f 197/3/3 193/3/3 196/3/3
f 198/5/3 194/5/3 197/5/3
f 199/1/3 196/1/3 195/1/3
f 199/3/3 195/3/3 161/3/3
f 200/3/3 197/3/3 196/3/3
f 200/1/3 196/1/3 199/1/3
f 201/4/3 198/4/3 197/4/3
f 201/3/3 197/3/3 200/3/3
f 202/4/3 198/4/3 201/4/3
f 203/3/3 200/3/3 199/3/3
f 204/1/3 201/1/3 200/1/3
f 204/3/3 200/3/3 203/3/3
f 205/3/3 203/3/3 199/3/3
f 205/1/3 204/1/3 203/1/3
f 206/1/3 201/1/3 204/1/3
f 206/1/3 204/1/3 205/1/3
f 207/3/3 199/3/3 161/3/3
f 207/3/3 205/3/3 199/3/3
f 207/3/3 206/3/3 205/3/3
f 208/1/3 201/1/3 206/1/3
f 208/3/3 206/3/3 207/3/3
f 209/3/3 202/3/3 201/3/3
f 209/1/3 201/1/3 208/1/3
f 210/3/3 207/3/3 161/3/3
f 210/1/3 208/1/3 207/1/3
f 211/3/3 209/3/3 208/3/3
f 211/1/3 208/1/3 210/1/3
f 212/3/3 211/3/3 210/3/3
f 213/3/3 209/3/3 211/3/3
f 213/3/3 211/3/3 212/3/3
f 214/3/3 210/3/3 161/3/3
f 214/3/3 212/3/3 210/3/3
f 215/1/3 213/1/3 212/1/3
f 215/3/3 212/3/3 214/3/3
f 216/3/3 209/3/3 213/3/3
f 216/1/3 213/1/3 215/1/3
f 217/3/3 202/3/3 209/3/3
f 217/3/3 209/3/3 216/3/3
f 218/1/3 215/1/3 214/1/3
f 218/3/3 214/3/3 161/3/3
f 219/3/3 216/3/3 215/3/3
f 219/1/3 215/1/3 218/1/3
f 220/1/3 217/1/3 216/1/3
f 220/3/3 216/3/3 219/3/3
f 221/3/3 202/3/3 217/3/3
f 221/1/3 217/1/3 220/1/3
f 222/3/3 218/3/3 161/3/3
f 222/3/3 219/3/3 218/3/3
f 223/3/3 219/3/3 222/3/3
f 224/1/3 220/1/3 219/1/3
f 224/3/3 219/3/3 223/3/3
f 225/3/3 221/3/3 220/3/3
f 225/1/3 220/1/3 224/1/3
f 226/3/3 202/3/3 221/3/3
f 226/3/3 221/3/3 225/3/3
f 227/3/3 202/3/3 226/3/3
f 228/5/3 223/5/3 222/5/3
f 229/3/3 225/3/3 224/3/3
f 229/5/3 223/5/3 228/5/3
f 229/3/3 224/3/3 223/3/3
f 229/3/3 226/3/3 225/3/3
f 230/5/3 227/5/3 226/5/3
f 230/3/3 226/3/3 229/3/3
f 231/5/3 227/5/3 230/5/3
f 234/5/3 233/5/3 232/5/3
f 235/5/3 233/5/3 234/5/3
f 238/3/3 237/3/3 236/3/3
f 239/3/3 237/3/3 238/3/3
f 240/3/3 237/3/3 239/3/3
f 241/2/3 240/2/3 239/2/3
f 242/2/3 240/2/3 241/2/3
f 243/3/3 242/3/3 241/3/3
f 244/3/3 242/3/3 243/3/3
f 245/4/3 244/4/3 243/4/3
f 246/4/3 244/4/3 245/4/3
f 247/4/3 244/4/3 246/4/3
f 248/4/3 244/4/3 247/4/3
f 249/3/3 248/3/3 247/3/3
f 250/3/3 248/3/3 249/3/3
f 251/2/3 250/2/3 249/2/3
f 252/2/3 250/2/3 251/2/3
f 253/3/3 252/3/3 251/3/3
f 256/3/3 252/3/3 253/3/3
f 257/3/3 252/3/3 256/3/3
f 258/5/3 255/5/3 254/5/3
f 259/5/3 255/5/3 258/5/3
f 262/4/3 261/4/3 260/4/3
f 263/4/3 261/4/3 262/4/3
f 266/4/3 265/4/3 264/4/3
f 267/4/3 265/4/3 266/4/3
f 270/4/3 269/4/3 268/4/3
f 271/4/3 269/4/3 270/4/3
f 274/5/3 273/5/3 272/5/3
f 275/5/3 273/5/3 274/5/3
f 277/4/3 276/4/3 275/4/3
f 278/4/3 276/4/3 277/4/3
f 281/4/3 279/4/3 278/4/3
f 282/4/3 279/4/3 281/4/3
f 284/4/3 281/4/3 280/4/3
f 285/4/3 281/4/3 284/4/3
f 286/5/3 284/5/3 283/5/3
f 287/5/3 284/5/3 286/5/3
f 290/4/3 289/4/3 288/4/3
f 291/4/3 289/4/3 290/4/3
f 294/4/3 293/4/3 292/4/3
f 295/4/3 293/4/3 294/4/3
f 298/4/3 297/4/3 296/4/3
f 299/4/3 297/4/3 298/4/3
f 302/5/3 301/5/3 300/5/3
f 303/5/3 301/5/3 302/5/3
f 306/5/3 305/5/3 304/5/3
f 307/5/3 305/5/3 306/5/3
f 308/5/4 309/5/4 310/5/4
f 310/5/4 309/5/4 311/5/4
f 312/5/4 313/5/4 314/5/4
f 314/5/4 313/5/4 315/5/4
f 316/4/4 317/4/4 318/4/4
f 318/4/4 317/4/4 319/4/4
f 320/4/4 321/4/4 322/4/4
f 322/4/4 321/4/4 323/4/4
f 324/4/4 325/4/4 326/4/4
f 326/4/4 325/4/4 327/4/4
f 328/5/4 329/5/4 330/5/4
f 330/5/4 329/5/4 331/5/4
f 331/4/4 332/4/4 333/4/4
f 333/4/4 332/4/4 334/4/4
f 334/4/4 335/4/4 337/4/4
f 337/4/4 335/4/4 338/4/4
f 336/4/4 337/4/4 340/4/4
f 340/4/4 337/4/4 341/4/4
f 339/5/4 340/5/4 342/5/4
f 342/5/4 340/5/4 343/5/4
f 344/4/4 345/4/4 346/4/4
f 346/4/4 345/4/4 347/4/4
f 348/4/4 349/4/4 350/4/4
f 350/4/4 349/4/4 351/4/4
f 352/4/4 353/4/4 354/4/4
f 354/4/4 353/4/4 355/4/4
f 356/5/4 357/5/4 358/5/4
f 358/5/4 357/5/4 359/5/4
f 360/3/4 361/3/4 362/3/4
f 362/3/4 361/3/4 363/3/4
f 363/3/4 361/3/4 364/3/4
f 363/2/4 364/2/4 365/2/4
f 365/2/4 364/2/4 366/2/4
f 365/3/4 366/3/4 367/3/4
f 367/3/4 366/3/4 368/3/4
f 367/2/4 368/2/4 369/2/4
f 369/2/4 368/2/4 370/2/4
f 369/3/4 370/3/4 371/3/4
f 371/3/4 370/3/4 374/3/4
f 374/3/4 370/3/4 375/3/4
f 372/5/4 373/5/4 376/5/4
f 376/5/4 373/5/4 377/5/4
f 378/5/4 379/5/4 382/5/4
f 379/3/4 380/3/4 383/3/4
f 382/5/4 379/5/4 383/5/4
f 380/5/4 381/5/4 384/5/4
f 383/3/4 380/3/4 384/3/4
f 384/5/4 381/5/4 385/5/4
f 382/3/4 383/3/4 386/3/4
f 383/3/4 384/3/4 386/3/4
f 384/3/4 385/3/4 386/3/4
f 386/3/4 385/3/4 387/3/4
f 387/3/4 385/3/4 388/3/4
f 388/3/4 385/3/4 389/3/4
f 386/5/4 387/5/4 390/5/4
f 387/3/4 388/3/4 391/3/4
f 390/5/4 387/5/4 391/5/4
f 388/5/4 389/5/4 392/5/4
f 391/3/4 388/3/4 392/3/4
f 392/5/4 389/5/4 393/5/4
f 398/5/5 395/5/5 394/5/5
f 399/3/5 396/3/5 395/3/5
f 399/5/5 395/5/5 398/5/5
f 400/5/5 397/5/5 396/5/5
f 400/3/5 396/3/5 399/3/5
f 401/5/5 397/5/5 400/5/5
f 402/3/5 399/3/5 398/3/5
f 402/3/5 400/3/5 399/3/5
f 402/3/5 401/3/5 400/3/5
f 403/3/5 401/3/5 402/3/5
f 404/3/5 401/3/5 403/3/5
f 405/3/5 401/3/5 404/3/5
f 406/5/5 403/5/5 402/5/5
f 407/3/5 404/3/5 403/3/5
f 407/5/5 403/5/5 406/5/5
f 408/5/5 405/5/5 404/5/5
f 408/3/5 404/3/5 407/3/5
f 409/5/5 405/5/5 408/5/5
f 415/5/5 411/5/5 410/5/5
f 416/5/5 411/5/5 415/5/5
f 417/5/5 413/5/5 412/5/5
f 418/5/5 413/5/5 417/5/5
f 421/4/5 415/4/5 414/4/5
f 422/4/5 415/4/5 421/4/5
f 423/4/5 419/4/5 418/4/5
f 424/4/5 419/4/5 423/4/5
f 426/4/5 421/4/5 420/4/5
f 427/4/5 421/4/5 426/4/5
f 430/4/5 425/4/5 424/4/5
f 431/4/5 425/4/5 430/4/5
f 432/4/5 428/4/5 427/4/5
f 433/4/5 428/4/5 432/4/5
f 436/4/5 430/4/5 429/4/5
f 437/4/5 430/4/5 436/4/5
f 438/5/5 434/5/5 433/5/5
f 439/5/5 434/5/5 438/5/5
f 440/5/5 436/5/5 435/5/5
f 441/5/5 436/5/5 440/5/5
f 446/4/5 443/4/5 442/4/5
f 447/4/5 443/4/5 446/4/5
f 448/4/5 445/4/5 444/4/5
f 449/4/5 445/4/5 448/4/5
f 452/4/5 451/4/5 450/4/5
f 453/4/5 451/4/5 452/4/5
f 454/5/6 455/5/6 459/5/6
f 459/5/6 455/5/6 460/5/6
f 456/5/6 457/5/6 461/5/6
f 461/5/6 457/5/6 462/5/6
f 458/4/6 459/4/6 465/4/6
f 465/4/6 459/4/6 466/4/6
f 462/4/6 463/4/6 467/4/6
f 467/4/6 463/4/6 468/4/6
f 464/4/6 465/4/6 470/4/6
f 470/4/6 465/4/6 471/4/6
f 468/4/6 469/4/6 474/4/6
f 474/4/6 469/4/6 475/4/6
f 471/4/6 472/4/6 476/4/6
f 476/4/6 472/4/6 477/4/6
f 473/4/6 474/4/6 480/4/6
f 480/4/6 474/4/6 481/4/6
f 477/5/6 478/5/6 482/5/6
f 482/5/6 478/5/6 483/5/6
f 479/5/6 480/5/6 484/5/6
f 484/5/6 480/5/6 485/5/6
f 486/5/6 487/5/6 494/5/6
f 487/3/6 488/3/6 495/3/6
f 494/5/6 487/5/6 495/5/6
f 495/3/6 488/3/6 496/3/6
f 496/3/6 488/3/6 497/3/6
f 488/4/6 489/4/6 498/4/6
f 497/3/6 488/3/6 498/3/6
f 489/5/6 490/5/6 499/5/6
f 498/4/6 489/4/6 499/4/6
f 490/4/6 491/4/6 500/4/6
f 499/5/6 490/5/6 500/5/6
f 491/3/6 492/3/6 501/3/6
f 500/4/6 491/4/6 501/4/6
f 501/3/6 492/3/6 502/3/6
f 502/3/6 492/3/6 503/3/6
f 492/5/6 493/5/6 504/5/6
f 503/3/6 492/3/6 504/3/6
f 504/5/6 493/5/6 505/5/6
f 506/5/6 507/5/6 514/5/6
f 507/3/6 508/3/6 515/3/6
f 514/5/6 507/5/6 515/5/6
f 508/3/6 509/3/6 515/3/6
f 511/3/6 512/3/6 515/3/6
f 510/3/6 511/3/6 515/3/6
f 509/3/6 510/3/6 515/3/6
f 512/5/6 513/5/6 516/5/6
f 515/3/6 512/3/6 516/3/6
f 516/5/6 513/5/6 517/5/6
f 520/3/6 521/3/6 526/3/6
f 521/4/6 522/4/6 526/4/6
f 522/3/6 523/3/6 527/3/6
f 526/4/6 522/4/6 527/4/6
f 518/3/6 519/3/6 528/3/6
f 528/3/6 519/3/6 529/3/6
f 524/3/6 525/3/6 530/3/6
f 530/3/6 525/3/6 531/3/6
f 518/3/6 528/3/6 532/3/6
f 529/3/6 519/3/6 533/3/6
f 524/3/6 530/3/6 534/3/6
f 531/3/6 525/3/6 535/3/6
f 518/3/6 532/3/6 536/3/6
f 532/3/6 533/3/6 536/3/6
f 519/2/6 520/2/6 537/2/6
f 536/3/6 533/3/6 537/3/6
f 533/3/6 519/3/6 537/3/6
f 520/3/6 526/3/6 538/3/6
f 537/2/6 520/2/6 538/2/6
f 526/3/6 527/3/6 538/3/6
f 527/3/6 523/3/6 539/3/6
f 538/3/6 527/3/6 539/3/6
f 523/2/6 524/2/6 539/2/6
f 534/3/6 535/3/6 540/3/6
f 539/2/6 524/2/6 540/2/6
f 524/3/6 534/3/6 540/3/6
f 535/3/6 525/3/6 541/3/6
f 540/3/6 535/3/6 541/3/6
f 542/5/6 543/5/6 546/5/6
f 546/5/6 543/5/6 547/5/6
f 544/5/6 545/5/6 548/5/6
f 548/5/6 545/5/6 549/5/6
f 550/4/6 551/4/6 554/4/6
f 554/4/6 551/4/6 555/4/6
f 552/4/6 553/4/6 556/4/6
f 556/4/6 553/4/6 557/4/6
f 558/4/6 559/4/6 560/4/6
f 560/4/6 559/4/6 561/4/6
