# MagicaVoxel @ Ephtracy

# group
o 

# material
mtllib bed.mtl
usemtl palette

# normals
vn -1 0 0
vn 1 0 0
vn 0 0 1
vn 0 0 -1
vn 0 -1 0
vn 0 1 0

# texcoords
vt 0.650391 0.5
vt 0.962891 0.5
vt 0.978516 0.5

# verts
v 0.1 2 -2
v 0.1 2 -2.1
v 0.1 2 -2.9
v 0.1 2 -3
v 0.1 2.2 -2.1
v 0.1 2.2 -2.9
v 0.1 2.3 -2
v 0.1 2.3 -3
v 1.9 2 -2
v 1.9 2 -2.1
v 1.9 2 -2.9
v 1.9 2 -3
v 1.9 2.1 -2
v 1.9 2.1 -2.1
v 1.9 2.1 -2.9
v 1.9 2.1 -3
v 2 2.2 -2
v 2 2.2 -2.1
v 2 2.2 -2.9
v 2 2.2 -3
v 2 2.3 -2
v 2 2.3 -2.1
v 2 2.3 -2.9
v 2 2.3 -3
v 0.2 2.2 -2
v 0.2 2.2 -2.1
v 0.2 2.2 -2.9
v 0.2 2.2 -3
v 0.2 2.3 -2
v 0.2 2.3 -2.1
v 0.2 2.3 -2.9
v 0.2 2.3 -3
v 0.3 2 -2
v 0.3 2 -2.1
v 0.3 2 -2.9
v 0.3 2 -3
v 0.3 2.1 -2
v 0.3 2.1 -2.1
v 0.3 2.1 -2.9
v 0.3 2.1 -3
v 2.1 2 -2
v 2.1 2 -2.1
v 2.1 2 -2.9
v 2.1 2 -3
v 2.1 2.2 -2.1
v 2.1 2.2 -2.9
v 2.1 2.3 -2
v 2.1 2.3 -3
v 0.1 2 -2
v 0.1 2.3 -2
v 0.2 2.2 -2
v 0.2 2.3 -2
v 0.3 2 -2
v 0.3 2.1 -2
v 1.9 2 -2
v 1.9 2.1 -2
v 2 2.2 -2
v 2 2.3 -2
v 2.1 2 -2
v 2.1 2.3 -2
v 0.2 2.2 -2.1
v 0.2 2.3 -2.1
v 0.7 2.2 -2.1
v 0.7 2.3 -2.1
v 2 2.2 -2.1
v 2 2.3 -2.1
v 0.1 2 -2.9
v 0.1 2.2 -2.9
v 0.2 2.2 -2.9
v 0.3 2 -2.9
v 0.3 2.1 -2.9
v 0.7 2.2 -2.9
v 1.9 2 -2.9
v 1.9 2.1 -2.9
v 2 2.2 -2.9
v 2.1 2 -2.9
v 2.1 2.2 -2.9
v 0.1 2 -2.1
v 0.1 2.2 -2.1
v 0.2 2.2 -2.1
v 0.3 2 -2.1
v 0.3 2.1 -2.1
v 0.7 2.2 -2.1
v 1.9 2 -2.1
v 1.9 2.1 -2.1
v 2 2.2 -2.1
v 2.1 2 -2.1
v 2.1 2.2 -2.1
v 0.2 2.2 -2.9
v 0.2 2.3 -2.9
v 0.7 2.2 -2.9
v 0.7 2.3 -2.9
v 2 2.2 -2.9
v 2 2.3 -2.9
v 0.1 2 -3
v 0.1 2.3 -3
v 0.2 2.2 -3
v 0.2 2.3 -3
v 0.3 2 -3
v 0.3 2.1 -3
v 1.9 2 -3
v 1.9 2.1 -3
v 2 2.2 -3
v 2 2.3 -3
v 2.1 2 -3
v 2.1 2.3 -3
v 0.1 2 -2
v 0.3 2 -2
v 1.9 2 -2
v 2.1 2 -2
v 0.1 2 -2.1
v 0.3 2 -2.1
v 1.9 2 -2.1
v 2.1 2 -2.1
v 0.1 2 -2.9
v 0.3 2 -2.9
v 1.9 2 -2.9
v 2.1 2 -2.9
v 0.1 2 -3
v 0.3 2 -3
v 1.9 2 -3
v 2.1 2 -3
v 0.3 2.1 -2
v 1.9 2.1 -2
v 0.3 2.1 -2.1
v 1.9 2.1 -2.1
v 0.3 2.1 -2.9
v 1.9 2.1 -2.9
v 0.3 2.1 -3
v 1.9 2.1 -3
v 0.1 2.2 -2.1
v 0.2 2.2 -2.1
v 0.7 2.2 -2.1
v 2 2.2 -2.1
v 2.1 2.2 -2.1
v 0.1 2.2 -2.9
v 0.2 2.2 -2.9
v 0.7 2.2 -2.9
v 2 2.2 -2.9
v 2.1 2.2 -2.9
v 0.2 2.2 -2
v 2 2.2 -2
v 0.2 2.2 -2.1
v 0.7 2.2 -2.1
v 2 2.2 -2.1
v 0.2 2.2 -2.9
v 0.7 2.2 -2.9
v 2 2.2 -2.9
v 0.2 2.2 -3
v 2 2.2 -3
v 0.1 2.3 -2
v 0.2 2.3 -2
v 2 2.3 -2
v 2.1 2.3 -2
v 0.2 2.3 -2.1
v 0.7 2.3 -2.1
v 2 2.3 -2.1
v 0.2 2.3 -2.9
v 0.7 2.3 -2.9
v 2 2.3 -2.9
v 0.1 2.3 -3
v 0.2 2.3 -3
v 2 2.3 -3
v 2.1 2.3 -3

# faces
f 5/3/1 2/3/1 1/3/1
f 6/3/1 4/3/1 3/3/1
f 7/3/1 5/3/1 1/3/1
f 7/3/1 6/3/1 5/3/1
f 8/3/1 4/3/1 6/3/1
f 8/3/1 6/3/1 7/3/1
f 13/3/1 10/3/1 9/3/1
f 14/3/1 10/3/1 13/3/1
f 15/3/1 12/3/1 11/3/1
f 16/3/1 12/3/1 15/3/1
f 21/3/1 18/3/1 17/3/1
f 22/3/1 18/3/1 21/3/1
f 23/3/1 20/3/1 19/3/1
f 24/3/1 20/3/1 23/3/1
f 25/3/2 26/3/2 29/3/2
f 29/3/2 26/3/2 30/3/2
f 27/3/2 28/3/2 31/3/2
f 31/3/2 28/3/2 32/3/2
f 33/3/2 34/3/2 37/3/2
f 37/3/2 34/3/2 38/3/2
f 35/3/2 36/3/2 39/3/2
f 39/3/2 36/3/2 40/3/2
f 41/3/2 42/3/2 45/3/2
f 43/3/2 44/3/2 46/3/2
f 41/3/2 45/3/2 47/3/2
f 45/3/2 46/3/2 47/3/2
f 46/3/2 44/3/2 48/3/2
f 47/3/2 46/3/2 48/3/2
f 51/3/3 50/3/3 49/3/3
f 52/3/3 50/3/3 51/3/3
f 53/3/3 51/3/3 49/3/3
f 54/3/3 51/3/3 53/3/3
f 56/3/3 51/3/3 54/3/3
f 57/3/3 51/3/3 56/3/3
f 57/3/3 56/3/3 55/3/3
f 59/3/3 57/3/3 55/3/3
f 59/3/3 58/3/3 57/3/3
f 60/3/3 58/3/3 59/3/3
f 63/2/3 62/2/3 61/2/3
f 64/2/3 62/2/3 63/2/3
f 65/1/3 64/1/3 63/1/3
f 66/1/3 64/1/3 65/1/3
f 69/3/3 68/3/3 67/3/3
f 70/3/3 69/3/3 67/3/3
f 71/3/3 69/3/3 70/3/3
f 72/3/3 69/3/3 71/3/3
f 74/3/3 72/3/3 71/3/3
f 75/3/3 72/3/3 74/3/3
f 75/3/3 74/3/3 73/3/3
f 76/3/3 75/3/3 73/3/3
f 77/3/3 75/3/3 76/3/3
f 78/3/4 79/3/4 80/3/4
f 78/3/4 80/3/4 81/3/4
f 81/3/4 80/3/4 82/3/4
f 82/3/4 80/3/4 83/3/4
f 82/3/4 83/3/4 85/3/4
f 85/3/4 83/3/4 86/3/4
f 84/3/4 85/3/4 86/3/4
f 84/3/4 86/3/4 87/3/4
f 87/3/4 86/3/4 88/3/4
f 89/2/4 90/2/4 91/2/4
f 91/2/4 90/2/4 92/2/4
f 91/1/4 92/1/4 93/1/4
f 93/1/4 92/1/4 94/1/4
f 95/3/4 96/3/4 97/3/4
f 97/3/4 96/3/4 98/3/4
f 95/3/4 97/3/4 99/3/4
f 99/3/4 97/3/4 100/3/4
f 100/3/4 97/3/4 102/3/4
f 102/3/4 97/3/4 103/3/4
f 101/3/4 102/3/4 103/3/4
f 101/3/4 103/3/4 105/3/4
f 103/3/4 104/3/4 105/3/4
f 105/3/4 104/3/4 106/3/4
f 111/3/5 108/3/5 107/3/5
f 112/3/5 108/3/5 111/3/5
f 113/3/5 110/3/5 109/3/5
f 114/3/5 110/3/5 113/3/5
f 119/3/5 116/3/5 115/3/5
f 120/3/5 116/3/5 119/3/5
f 121/3/5 118/3/5 117/3/5
f 122/3/5 118/3/5 121/3/5
f 125/3/5 124/3/5 123/3/5
f 126/3/5 124/3/5 125/3/5
f 129/3/5 128/3/5 127/3/5
f 130/3/5 128/3/5 129/3/5
f 136/3/5 132/3/5 131/3/5
f 137/2/5 133/2/5 132/2/5
f 137/3/5 132/3/5 136/3/5
f 138/1/5 134/1/5 133/1/5
f 138/2/5 133/2/5 137/2/5
f 139/3/5 135/3/5 134/3/5
f 139/1/5 134/1/5 138/1/5
f 140/3/5 135/3/5 139/3/5
f 141/3/6 142/3/6 143/3/6
f 143/3/6 142/3/6 144/3/6
f 144/3/6 142/3/6 145/3/6
f 146/3/6 147/3/6 149/3/6
f 147/3/6 148/3/6 149/3/6
f 149/3/6 148/3/6 150/3/6
f 151/3/6 152/3/6 155/3/6
f 153/3/6 154/3/6 157/3/6
f 155/2/6 156/2/6 158/2/6
f 151/3/6 155/3/6 158/3/6
f 156/1/6 157/1/6 159/1/6
f 158/2/6 156/2/6 159/2/6
f 157/3/6 154/3/6 160/3/6
f 159/1/6 157/1/6 160/1/6
f 151/3/6 158/3/6 161/3/6
f 161/3/6 158/3/6 162/3/6
f 160/3/6 154/3/6 163/3/6
f 163/3/6 154/3/6 164/3/6
