# MagicaVoxel @ Ephtracy

# group
o 

# material
mtllib health.mtl
usemtl palette

# normals
vn -1 0 0
vn 1 0 0
vn 0 0 1
vn 0 0 -1
vn 0 -1 0
vn 0 1 0

# texcoords
vt 0.751953 0.5
vt 0.779297 0.5
vt 0.841797 0.5
vt 0.958984 0.5
vt 0.974609 0.5

# verts
v 1.3 2 -1.3
v 1.3 2 -2.3
v 1.3 2.4 -1.3
v 1.3 2.4 -2.3
v 1.3 2.5 -1.3
v 1.3 2.5 -2.3
v 1.3 2.6 -1.3
v 1.3 2.6 -2.3
v 1.3 2.7 -1.3
v 1.3 2.7 -2.3
v 1.7 2.2 -1.1
v 1.7 2.2 -1.2
v 1.7 2.3 -1.1
v 1.7 2.3 -1.2
v 1.8 2.1 -1.1
v 1.8 2.1 -1.2
v 1.8 2.2 -1.1
v 1.8 2.2 -1.2
v 1.8 2.3 -1.1
v 1.8 2.3 -1.2
v 1.8 2.4 -1.1
v 1.8 2.4 -1.2
v 1.9 2.3 -1.2
v 1.9 2.3 -1.3
v 1.9 2.4 -1.2
v 1.9 2.4 -1.3
v 2.2 2.2 -1.1
v 2.2 2.2 -1.2
v 2.2 2.3 -1.1
v 2.2 2.3 -1.2
v 1.8 2.2 -1.1
v 1.8 2.2 -1.2
v 1.8 2.3 -1.1
v 1.8 2.3 -1.2
v 2.1 2.3 -1.2
v 2.1 2.3 -1.3
v 2.1 2.4 -1.2
v 2.1 2.4 -1.3
v 2.2 2.1 -1.1
v 2.2 2.1 -1.2
v 2.2 2.2 -1.1
v 2.2 2.2 -1.2
v 2.2 2.3 -1.1
v 2.2 2.3 -1.2
v 2.2 2.4 -1.1
v 2.2 2.4 -1.2
v 2.3 2.2 -1.1
v 2.3 2.2 -1.2
v 2.3 2.3 -1.1
v 2.3 2.3 -1.2
v 2.7 2 -1.3
v 2.7 2 -2.3
v 2.7 2.4 -1.3
v 2.7 2.4 -2.3
v 2.7 2.5 -1.3
v 2.7 2.5 -2.3
v 2.7 2.6 -1.3
v 2.7 2.6 -2.3
v 2.7 2.7 -1.3
v 2.7 2.7 -2.3
v 1.7 2.2 -1.1
v 1.7 2.3 -1.1
v 1.8 2.1 -1.1
v 1.8 2.2 -1.1
v 1.8 2.3 -1.1
v 1.8 2.4 -1.1
v 2.2 2.1 -1.1
v 2.2 2.2 -1.1
v 2.2 2.3 -1.1
v 2.2 2.4 -1.1
v 2.3 2.2 -1.1
v 2.3 2.3 -1.1
v 1.3 2 -1.3
v 1.3 2.4 -1.3
v 1.3 2.5 -1.3
v 1.3 2.6 -1.3
v 1.3 2.7 -1.3
v 1.9 2.3 -1.3
v 1.9 2.4 -1.3
v 2.1 2.3 -1.3
v 2.1 2.4 -1.3
v 2.7 2 -1.3
v 2.7 2.4 -1.3
v 2.7 2.5 -1.3
v 2.7 2.6 -1.3
v 2.7 2.7 -1.3
v 1.7 2.2 -1.2
v 1.7 2.3 -1.2
v 1.8 2.1 -1.2
v 1.8 2.2 -1.2
v 1.8 2.3 -1.2
v 1.8 2.4 -1.2
v 1.9 2.3 -1.2
v 1.9 2.4 -1.2
v 2.1 2.3 -1.2
v 2.1 2.4 -1.2
v 2.2 2.1 -1.2
v 2.2 2.2 -1.2
v 2.2 2.3 -1.2
v 2.2 2.4 -1.2
v 2.3 2.2 -1.2
v 2.3 2.3 -1.2
v 1.3 2 -2.3
v 1.3 2.4 -2.3
v 1.3 2.5 -2.3
v 1.3 2.6 -2.3
v 1.3 2.7 -2.3
v 2.7 2 -2.3
v 2.7 2.4 -2.3
v 2.7 2.5 -2.3
v 2.7 2.6 -2.3
v 2.7 2.7 -2.3
v 1.3 2 -1.3
v 2.7 2 -1.3
v 1.3 2 -2.3
v 2.7 2 -2.3
v 1.8 2.1 -1.1
v 2.2 2.1 -1.1
v 1.8 2.1 -1.2
v 2.2 2.1 -1.2
v 1.7 2.2 -1.1
v 1.8 2.2 -1.1
v 2.2 2.2 -1.1
v 2.3 2.2 -1.1
v 1.7 2.2 -1.2
v 1.8 2.2 -1.2
v 2.2 2.2 -1.2
v 2.3 2.2 -1.2
v 1.8 2.3 -1.1
v 2.2 2.3 -1.1
v 1.8 2.3 -1.2
v 1.9 2.3 -1.2
v 2.1 2.3 -1.2
v 2.2 2.3 -1.2
v 1.9 2.3 -1.3
v 2.1 2.3 -1.3
v 1.8 2.2 -1.1
v 2.2 2.2 -1.1
v 1.8 2.2 -1.2
v 2.2 2.2 -1.2
v 1.7 2.3 -1.1
v 1.8 2.3 -1.1
v 2.2 2.3 -1.1
v 2.3 2.3 -1.1
v 1.7 2.3 -1.2
v 1.8 2.3 -1.2
v 2.2 2.3 -1.2
v 2.3 2.3 -1.2
v 1.8 2.4 -1.1
v 2.2 2.4 -1.1
v 1.8 2.4 -1.2
v 1.9 2.4 -1.2
v 2.1 2.4 -1.2
v 2.2 2.4 -1.2
v 1.9 2.4 -1.3
v 2.1 2.4 -1.3
v 1.3 2.7 -1.3
v 2.7 2.7 -1.3
v 1.4 2.7 -1.4
v 1.8 2.7 -1.4
v 2.2 2.7 -1.4
v 2.6 2.7 -1.4
v 1.7 2.7 -1.5
v 1.8 2.7 -1.5
v 1.9 2.7 -1.5
v 2.1 2.7 -1.5
v 2.2 2.7 -1.5
v 2.3 2.7 -1.5
v 1.6 2.7 -1.6
v 1.7 2.7 -1.6
v 2.3 2.7 -1.6
v 2.4 2.7 -1.6
v 1.7 2.7 -1.7
v 1.9 2.7 -1.7
v 2.1 2.7 -1.7
v 2.3 2.7 -1.7
v 1.7 2.7 -1.9
v 1.9 2.7 -1.9
v 2.1 2.7 -1.9
v 2.3 2.7 -1.9
v 1.6 2.7 -2
v 1.7 2.7 -2
v 2.3 2.7 -2
v 2.4 2.7 -2
v 1.7 2.7 -2.1
v 1.8 2.7 -2.1
v 1.9 2.7 -2.1
v 2.1 2.7 -2.1
v 2.2 2.7 -2.1
v 2.3 2.7 -2.1
v 1.4 2.7 -2.2
v 1.8 2.7 -2.2
v 2.2 2.7 -2.2
v 2.6 2.7 -2.2
v 1.3 2.7 -2.3
v 2.7 2.7 -2.3

# faces
f 3/5/1 2/5/1 1/5/1
f 4/5/1 2/5/1 3/5/1
f 5/2/1 4/2/1 3/2/1
f 6/2/1 4/2/1 5/2/1
f 7/1/1 6/1/1 5/1/1
f 8/1/1 6/1/1 7/1/1
f 9/2/1 8/2/1 7/2/1
f 10/2/1 8/2/1 9/2/1
f 13/5/1 12/5/1 11/5/1
f 14/5/1 12/5/1 13/5/1
f 17/5/1 16/5/1 15/5/1
f 18/5/1 16/5/1 17/5/1
f 21/5/1 20/5/1 19/5/1
f 22/5/1 20/5/1 21/5/1
f 25/5/1 24/5/1 23/5/1
f 26/5/1 24/5/1 25/5/1
f 29/5/1 28/5/1 27/5/1
f 30/5/1 28/5/1 29/5/1
f 31/5/2 32/5/2 33/5/2
f 33/5/2 32/5/2 34/5/2
f 35/5/2 36/5/2 37/5/2
f 37/5/2 36/5/2 38/5/2
f 39/5/2 40/5/2 41/5/2
f 41/5/2 40/5/2 42/5/2
f 43/5/2 44/5/2 45/5/2
f 45/5/2 44/5/2 46/5/2
f 47/5/2 48/5/2 49/5/2
f 49/5/2 48/5/2 50/5/2
f 51/5/2 52/5/2 53/5/2
f 53/5/2 52/5/2 54/5/2
f 53/2/2 54/2/2 55/2/2
f 55/2/2 54/2/2 56/2/2
f 55/1/2 56/1/2 57/1/2
f 57/1/2 56/1/2 58/1/2
f 57/2/2 58/2/2 59/2/2
f 59/2/2 58/2/2 60/2/2
f 64/5/3 62/5/3 61/5/3
f 65/5/3 62/5/3 64/5/3
f 67/5/3 64/5/3 63/5/3
f 68/5/3 64/5/3 67/5/3
f 69/5/3 66/5/3 65/5/3
f 70/5/3 66/5/3 69/5/3
f 71/5/3 69/5/3 68/5/3
f 72/5/3 69/5/3 71/5/3
f 78/5/3 74/5/3 73/5/3
f 79/2/3 75/2/3 74/2/3
f 79/5/3 74/5/3 78/5/3
f 80/5/3 78/5/3 73/5/3
f 81/2/3 75/2/3 79/2/3
f 82/5/3 80/5/3 73/5/3
f 82/5/3 81/5/3 80/5/3
f 83/2/3 75/2/3 81/2/3
f 83/5/3 81/5/3 82/5/3
f 84/1/3 76/1/3 75/1/3
f 84/2/3 75/2/3 83/2/3
f 85/2/3 77/2/3 76/2/3
f 85/1/3 76/1/3 84/1/3
f 86/2/3 77/2/3 85/2/3
f 87/5/4 88/5/4 90/5/4
f 90/5/4 88/5/4 91/5/4
f 91/5/4 92/5/4 93/5/4
f 93/5/4 92/5/4 94/5/4
f 89/5/4 90/5/4 97/5/4
f 97/5/4 90/5/4 98/5/4
f 95/5/4 96/5/4 99/5/4
f 99/5/4 96/5/4 100/5/4
f 98/5/4 99/5/4 101/5/4
f 101/5/4 99/5/4 102/5/4
f 103/5/4 104/5/4 108/5/4
f 104/2/4 105/2/4 109/2/4
f 108/5/4 104/5/4 109/5/4
f 105/1/4 106/1/4 110/1/4
f 109/2/4 105/2/4 110/2/4
f 106/2/4 107/2/4 111/2/4
f 110/1/4 106/1/4 111/1/4
f 111/2/4 107/2/4 112/2/4
f 115/5/5 114/5/5 113/5/5
f 116/5/5 114/5/5 115/5/5
f 119/5/5 118/5/5 117/5/5
f 120/5/5 118/5/5 119/5/5
f 125/5/5 122/5/5 121/5/5
f 126/5/5 122/5/5 125/5/5
f 127/5/5 124/5/5 123/5/5
f 128/5/5 124/5/5 127/5/5
f 131/5/5 130/5/5 129/5/5
f 132/5/5 130/5/5 131/5/5
f 133/5/5 130/5/5 132/5/5
f 134/5/5 130/5/5 133/5/5
f 135/5/5 133/5/5 132/5/5
f 136/5/5 133/5/5 135/5/5
f 137/5/6 138/5/6 139/5/6
f 139/5/6 138/5/6 140/5/6
f 141/5/6 142/5/6 145/5/6
f 145/5/6 142/5/6 146/5/6
f 143/5/6 144/5/6 147/5/6
f 147/5/6 144/5/6 148/5/6
f 149/5/6 150/5/6 151/5/6
f 151/5/6 150/5/6 152/5/6
f 152/5/6 150/5/6 153/5/6
f 153/5/6 150/5/6 154/5/6
f 152/5/6 153/5/6 155/5/6
f 155/5/6 153/5/6 156/5/6
f 157/2/6 158/2/6 159/2/6
f 159/2/6 158/2/6 160/2/6
f 160/2/6 158/2/6 161/2/6
f 161/2/6 158/2/6 162/2/6
f 159/1/6 160/1/6 163/1/6
f 160/3/6 161/3/6 164/3/6
f 163/1/6 160/1/6 164/1/6
f 164/3/6 161/3/6 165/3/6
f 165/3/6 161/3/6 166/3/6
f 161/1/6 162/1/6 167/1/6
f 166/3/6 161/3/6 167/3/6
f 167/1/6 162/1/6 168/1/6
f 159/1/6 163/1/6 169/1/6
f 163/3/6 164/3/6 170/3/6
f 169/1/6 163/1/6 170/1/6
f 164/3/6 165/3/6 170/3/6
f 168/1/6 162/1/6 171/1/6
f 167/3/6 168/3/6 171/3/6
f 166/3/6 167/3/6 171/3/6
f 171/1/6 162/1/6 172/1/6
f 170/3/6 165/3/6 173/3/6
f 169/3/6 170/3/6 173/3/6
f 165/4/6 166/4/6 174/4/6
f 173/3/6 165/3/6 174/3/6
f 171/3/6 172/3/6 175/3/6
f 174/4/6 166/4/6 175/4/6
f 166/3/6 171/3/6 175/3/6
f 175/3/6 172/3/6 176/3/6
f 169/3/6 173/3/6 177/3/6
f 173/4/6 174/4/6 177/4/6
f 175/4/6 176/4/6 177/4/6
f 174/4/6 175/4/6 177/4/6
f 177/4/6 176/4/6 178/4/6
f 178/4/6 176/4/6 179/4/6
f 176/3/6 172/3/6 180/3/6
f 179/4/6 176/4/6 180/4/6
f 159/1/6 169/1/6 181/1/6
f 169/3/6 177/3/6 181/3/6
f 177/3/6 178/3/6 181/3/6
f 181/3/6 178/3/6 182/3/6
f 180/3/6 172/3/6 183/3/6
f 179/3/6 180/3/6 183/3/6
f 172/1/6 162/1/6 184/1/6
f 183/3/6 172/3/6 184/3/6
f 182/3/6 178/3/6 185/3/6
f 181/1/6 182/1/6 185/1/6
f 185/3/6 178/3/6 186/3/6
f 178/4/6 179/4/6 187/4/6
f 186/3/6 178/3/6 187/3/6
f 179/3/6 183/3/6 188/3/6
f 187/4/6 179/4/6 188/4/6
f 188/3/6 183/3/6 189/3/6
f 183/1/6 184/1/6 190/1/6
f 189/3/6 183/3/6 190/3/6
f 157/2/6 159/2/6 191/2/6
f 185/1/6 186/1/6 191/1/6
f 159/1/6 181/1/6 191/1/6
f 181/1/6 185/1/6 191/1/6
f 186/3/6 187/3/6 192/3/6
f 191/1/6 186/1/6 192/1/6
f 188/3/6 189/3/6 192/3/6
f 187/3/6 188/3/6 192/3/6
f 189/1/6 190/1/6 193/1/6
f 192/3/6 189/3/6 193/3/6
f 190/1/6 184/1/6 194/1/6
f 193/1/6 190/1/6 194/1/6
f 162/2/6 158/2/6 194/2/6
f 184/1/6 162/1/6 194/1/6
f 192/2/6 193/2/6 195/2/6
f 191/2/6 192/2/6 195/2/6
f 193/2/6 194/2/6 195/2/6
f 157/2/6 191/2/6 195/2/6
f 194/2/6 158/2/6 196/2/6
f 195/2/6 194/2/6 196/2/6
