# MagicaVoxel @ Ephtracy

# group
o 

# material
mtllib phone.mtl
usemtl palette

# normals
vn -1 0 0
vn 1 0 0
vn 0 0 1
vn 0 0 -1
vn 0 -1 0
vn 0 1 0

# texcoords
vt 0.0371094 0.5
vt 0.482422 0.5
vt 0.939453 0.5
vt 0.982422 0.5
vt 0.994141 0.5

# verts
v 1.7 3.3 -3.7
v 1.7 3.3 -4
v 1.7 4.7 -3.7
v 1.7 4.7 -4
v 2 3.6 -3.7
v 2 3.6 -3.8
v 2 3.7 -3.7
v 2 3.7 -3.8
v 2 3.8 -3.7
v 2 3.8 -3.8
v 2 3.9 -3.7
v 2 3.9 -3.8
v 2 4 -3.7
v 2 4 -3.8
v 2 4.1 -3.7
v 2 4.1 -3.8
v 2.2 3.6 -3.7
v 2.2 3.6 -3.8
v 2.2 3.7 -3.7
v 2.2 3.7 -3.8
v 2.2 3.8 -3.7
v 2.2 3.8 -3.8
v 2.2 3.9 -3.7
v 2.2 3.9 -3.8
v 2.2 4 -3.7
v 2.2 4 -3.8
v 2.2 4.1 -3.7
v 2.2 4.1 -3.8
v 2.4 3.6 -3.7
v 2.4 3.6 -3.8
v 2.4 3.7 -3.7
v 2.4 3.7 -3.8
v 2.4 3.8 -3.7
v 2.4 3.8 -3.8
v 2.4 3.9 -3.7
v 2.4 3.9 -3.8
v 2.4 4 -3.7
v 2.4 4 -3.8
v 2.4 4.1 -3.7
v 2.4 4.1 -3.8
v 2.5 4.4 -3.7
v 2.5 4.4 -3.8
v 2.5 4.6 -3.7
v 2.5 4.6 -3.8
v 2.7 3.5 -3.8
v 2.7 3.5 -3.9
v 2.7 3.9 -3.8
v 2.7 3.9 -3.9
v 2.7 4 -3.8
v 2.7 4 -3.9
v 1.8 4.4 -3.7
v 1.8 4.4 -3.8
v 1.8 4.6 -3.7
v 1.8 4.6 -3.8
v 1.9 3.6 -3.7
v 1.9 3.6 -3.8
v 1.9 3.7 -3.7
v 1.9 3.7 -3.8
v 1.9 3.8 -3.7
v 1.9 3.8 -3.8
v 1.9 3.9 -3.7
v 1.9 3.9 -3.8
v 1.9 4 -3.7
v 1.9 4 -3.8
v 1.9 4.1 -3.7
v 1.9 4.1 -3.8
v 2.1 3.6 -3.7
v 2.1 3.6 -3.8
v 2.1 3.7 -3.7
v 2.1 3.7 -3.8
v 2.1 3.8 -3.7
v 2.1 3.8 -3.8
v 2.1 3.9 -3.7
v 2.1 3.9 -3.8
v 2.1 4 -3.7
v 2.1 4 -3.8
v 2.1 4.1 -3.7
v 2.1 4.1 -3.8
v 2.3 3.6 -3.7
v 2.3 3.6 -3.8
v 2.3 3.7 -3.7
v 2.3 3.7 -3.8
v 2.3 3.8 -3.7
v 2.3 3.8 -3.8
v 2.3 3.9 -3.7
v 2.3 3.9 -3.8
v 2.3 4 -3.7
v 2.3 4 -3.8
v 2.3 4.1 -3.7
v 2.3 4.1 -3.8
v 2.6 3.3 -3.7
v 2.6 3.3 -4
v 2.6 3.4 -3.8
v 2.6 3.4 -3.9
v 2.6 3.5 -3.8
v 2.6 3.5 -3.9
v 2.6 4 -3.8
v 2.6 4 -3.9
v 2.6 4.2 -3.7
v 2.6 4.2 -3.8
v 2.6 4.2 -3.9
v 2.6 4.2 -4
v 2.6 4.4 -3.7
v 2.6 4.4 -3.8
v 2.6 4.4 -3.9
v 2.6 4.4 -4
v 2.6 4.5 -3.8
v 2.6 4.5 -3.9
v 2.6 4.7 -3.7
v 2.6 4.7 -4
v 2.7 3.4 -3.8
v 2.7 3.4 -3.9
v 2.7 3.5 -3.8
v 2.7 3.5 -3.9
v 2.7 4.1 -3.8
v 2.7 4.1 -3.9
v 2.7 4.2 -3.7
v 2.7 4.2 -3.8
v 2.7 4.2 -3.9
v 2.7 4.2 -4
v 2.7 4.3 -3.7
v 2.7 4.3 -3.8
v 2.7 4.3 -3.9
v 2.7 4.3 -4
v 2.7 4.4 -3.8
v 2.7 4.4 -3.9
v 2.8 3.5 -3.8
v 2.8 3.5 -3.9
v 2.8 3.9 -3.8
v 2.8 3.9 -3.9
v 2.8 4 -3.8
v 2.8 4 -3.9
v 2.8 4.3 -3.7
v 2.8 4.3 -3.8
v 2.8 4.3 -3.9
v 2.8 4.3 -4
v 2.8 4.4 -3.7
v 2.8 4.4 -3.8
v 2.8 4.4 -3.9
v 2.8 4.4 -4
v 2.9 4 -3.8
v 2.9 4 -3.9
v 2.9 4.1 -3.8
v 2.9 4.1 -3.9
v 2.9 4.4 -3.8
v 2.9 4.4 -3.9
v 2.9 4.5 -3.8
v 2.9 4.5 -3.9
v 1.7 3.3 -3.7
v 1.7 4.7 -3.7
v 1.8 4.4 -3.7
v 1.8 4.6 -3.7
v 1.9 3.6 -3.7
v 1.9 3.7 -3.7
v 1.9 3.8 -3.7
v 1.9 3.9 -3.7
v 1.9 4 -3.7
v 1.9 4.1 -3.7
v 2 3.6 -3.7
v 2 3.7 -3.7
v 2 3.8 -3.7
v 2 3.9 -3.7
v 2 4 -3.7
v 2 4.1 -3.7
v 2.1 3.6 -3.7
v 2.1 3.7 -3.7
v 2.1 3.8 -3.7
v 2.1 3.9 -3.7
v 2.1 4 -3.7
v 2.1 4.1 -3.7
v 2.2 3.6 -3.7
v 2.2 3.7 -3.7
v 2.2 3.8 -3.7
v 2.2 3.9 -3.7
v 2.2 4 -3.7
v 2.2 4.1 -3.7
v 2.3 3.6 -3.7
v 2.3 3.7 -3.7
v 2.3 3.8 -3.7
v 2.3 3.9 -3.7
v 2.3 4 -3.7
v 2.3 4.1 -3.7
v 2.4 3.6 -3.7
v 2.4 3.7 -3.7
v 2.4 3.8 -3.7
v 2.4 3.9 -3.7
v 2.4 4 -3.7
v 2.4 4.1 -3.7
v 2.5 4.4 -3.7
v 2.5 4.6 -3.7
v 2.6 3.3 -3.7
v 2.6 4.2 -3.7
v 2.6 4.4 -3.7
v 2.6 4.7 -3.7
v 2.7 4.2 -3.7
v 2.7 4.3 -3.7
v 2.8 4.3 -3.7
v 2.8 4.4 -3.7
v 1.8 4.4 -3.8
v 1.8 4.6 -3.8
v 1.9 3.6 -3.8
v 1.9 3.7 -3.8
v 1.9 3.8 -3.8
v 1.9 3.9 -3.8
v 1.9 4 -3.8
v 1.9 4.1 -3.8
v 2 3.6 -3.8
v 2 3.7 -3.8
v 2 3.8 -3.8
v 2 3.9 -3.8
v 2 4 -3.8
v 2 4.1 -3.8
v 2.1 3.6 -3.8
v 2.1 3.7 -3.8
v 2.1 3.8 -3.8
v 2.1 3.9 -3.8
v 2.1 4 -3.8
v 2.1 4.1 -3.8
v 2.2 3.6 -3.8
v 2.2 3.7 -3.8
v 2.2 3.8 -3.8
v 2.2 3.9 -3.8
v 2.2 4 -3.8
v 2.2 4.1 -3.8
v 2.3 3.6 -3.8
v 2.3 3.7 -3.8
v 2.3 3.8 -3.8
v 2.3 3.9 -3.8
v 2.3 4 -3.8
v 2.3 4.1 -3.8
v 2.4 3.6 -3.8
v 2.4 3.7 -3.8
v 2.4 3.8 -3.8
v 2.4 3.9 -3.8
v 2.4 4 -3.8
v 2.4 4.1 -3.8
v 2.5 4.4 -3.8
v 2.5 4.6 -3.8
v 2.6 3.4 -3.8
v 2.6 3.5 -3.8
v 2.6 4 -3.8
v 2.6 4.2 -3.8
v 2.6 4.4 -3.8
v 2.6 4.5 -3.8
v 2.7 3.4 -3.8
v 2.7 3.5 -3.8
v 2.7 3.9 -3.8
v 2.7 4 -3.8
v 2.7 4.1 -3.8
v 2.7 4.2 -3.8
v 2.8 3.5 -3.8
v 2.8 3.9 -3.8
v 2.8 4 -3.8
v 2.8 4.4 -3.8
v 2.9 4 -3.8
v 2.9 4.1 -3.8
v 2.9 4.4 -3.8
v 2.9 4.5 -3.8
v 2.7 4.3 -3.9
v 2.7 4.4 -3.9
v 2.8 4.3 -3.9
v 2.8 4.4 -3.9
v 2.7 4.3 -3.8
v 2.7 4.4 -3.8
v 2.8 4.3 -3.8
v 2.8 4.4 -3.8
v 2.6 3.4 -3.9
v 2.6 3.5 -3.9
v 2.6 4 -3.9
v 2.6 4.2 -3.9
v 2.6 4.4 -3.9
v 2.6 4.5 -3.9
v 2.7 3.4 -3.9
v 2.7 3.5 -3.9
v 2.7 3.9 -3.9
v 2.7 4 -3.9
v 2.7 4.1 -3.9
v 2.7 4.2 -3.9
v 2.8 3.5 -3.9
v 2.8 3.9 -3.9
v 2.8 4 -3.9
v 2.8 4.4 -3.9
v 2.9 4 -3.9
v 2.9 4.1 -3.9
v 2.9 4.4 -3.9
v 2.9 4.5 -3.9
v 1.7 3.3 -4
v 1.7 4.7 -4
v 1.8 4.4 -4
v 1.8 4.6 -4
v 1.9 3.8 -4
v 1.9 3.9 -4
v 1.9 4 -4
v 1.9 4.1 -4
v 2 3.8 -4
v 2 3.9 -4
v 2 4 -4
v 2 4.1 -4
v 2.1 3.8 -4
v 2.1 3.9 -4
v 2.1 4 -4
v 2.1 4.1 -4
v 2.2 3.8 -4
v 2.2 3.9 -4
v 2.2 4 -4
v 2.2 4.1 -4
v 2.3 3.8 -4
v 2.3 3.9 -4
v 2.3 4 -4
v 2.3 4.1 -4
v 2.4 3.8 -4
v 2.4 3.9 -4
v 2.4 4 -4
v 2.4 4.1 -4
v 2.5 4.4 -4
v 2.5 4.6 -4
v 2.6 3.3 -4
v 2.6 4.2 -4
v 2.6 4.4 -4
v 2.6 4.7 -4
v 2.7 4.2 -4
v 2.7 4.3 -4
v 2.8 4.3 -4
v 2.8 4.4 -4
v 1.7 3.3 -3.7
v 2.6 3.3 -3.7
v 1.7 3.3 -4
v 2.6 3.3 -4
v 2.6 3.4 -3.8
v 2.7 3.4 -3.8
v 2.6 3.4 -3.9
v 2.7 3.4 -3.9
v 2.7 3.5 -3.8
v 2.8 3.5 -3.8
v 2.7 3.5 -3.9
v 2.8 3.5 -3.9
v 1.9 3.7 -3.7
v 2 3.7 -3.7
v 2.1 3.7 -3.7
v 2.2 3.7 -3.7
v 2.3 3.7 -3.7
v 2.4 3.7 -3.7
v 1.9 3.7 -3.8
v 2 3.7 -3.8
v 2.1 3.7 -3.8
v 2.2 3.7 -3.8
v 2.3 3.7 -3.8
v 2.4 3.7 -3.8
v 1.9 3.9 -3.7
v 2 3.9 -3.7
v 2.1 3.9 -3.7
v 2.2 3.9 -3.7
v 2.3 3.9 -3.7
v 2.4 3.9 -3.7
v 1.9 3.9 -3.8
v 2 3.9 -3.8
v 2.1 3.9 -3.8
v 2.2 3.9 -3.8
v 2.3 3.9 -3.8
v 2.4 3.9 -3.8
v 2.6 4 -3.8
v 2.7 4 -3.8
v 2.8 4 -3.8
v 2.9 4 -3.8
v 2.6 4 -3.9
v 2.7 4 -3.9
v 2.8 4 -3.9
v 2.9 4 -3.9
v 1.9 4.1 -3.7
v 2 4.1 -3.7
v 2.1 4.1 -3.7
v 2.2 4.1 -3.7
v 2.3 4.1 -3.7
v 2.4 4.1 -3.7
v 1.9 4.1 -3.8
v 2 4.1 -3.8
v 2.1 4.1 -3.8
v 2.2 4.1 -3.8
v 2.3 4.1 -3.8
v 2.4 4.1 -3.8
v 2.6 4.2 -3.7
v 2.7 4.2 -3.7
v 2.6 4.2 -3.8
v 2.7 4.2 -3.8
v 2.6 4.2 -3.9
v 2.7 4.2 -3.9
v 2.6 4.2 -4
v 2.7 4.2 -4
v 2.7 4.3 -3.7
v 2.8 4.3 -3.7
v 2.7 4.3 -3.8
v 2.8 4.3 -3.8
v 2.7 4.3 -3.9
v 2.8 4.3 -3.9
v 2.7 4.3 -4
v 2.8 4.3 -4
v 2.7 4.4 -3.8
v 2.8 4.4 -3.8
v 2.9 4.4 -3.8
v 2.7 4.4 -3.9
v 2.8 4.4 -3.9
v 2.9 4.4 -3.9
v 1.8 4.6 -3.7
v 2.5 4.6 -3.7
v 1.8 4.6 -3.8
v 2.5 4.6 -3.8
v 2.6 3.5 -3.8
v 2.7 3.5 -3.8
v 2.6 3.5 -3.9
v 2.7 3.5 -3.9
v 1.9 3.6 -3.7
v 2 3.6 -3.7
v 2.1 3.6 -3.7
v 2.2 3.6 -3.7
v 2.3 3.6 -3.7
v 2.4 3.6 -3.7
v 1.9 3.6 -3.8
v 2 3.6 -3.8
v 2.1 3.6 -3.8
v 2.2 3.6 -3.8
v 2.3 3.6 -3.8
v 2.4 3.6 -3.8
v 1.9 3.8 -3.7
v 2 3.8 -3.7
v 2.1 3.8 -3.7
v 2.2 3.8 -3.7
v 2.3 3.8 -3.7
v 2.4 3.8 -3.7
v 1.9 3.8 -3.8
v 2 3.8 -3.8
v 2.1 3.8 -3.8
v 2.2 3.8 -3.8
v 2.3 3.8 -3.8
v 2.4 3.8 -3.8
v 1.9 4 -3.7
v 2 4 -3.7
v 2.1 4 -3.7
v 2.2 4 -3.7
v 2.3 4 -3.7
v 2.4 4 -3.7
v 1.9 4 -3.8
v 2 4 -3.8
v 2.1 4 -3.8
v 2.2 4 -3.8
v 2.3 4 -3.8
v 2.4 4 -3.8
v 2.7 4.1 -3.8
v 2.9 4.1 -3.8
v 2.7 4.1 -3.9
v 2.9 4.1 -3.9
v 1.8 4.4 -3.7
v 2.5 4.4 -3.7
v 2.6 4.4 -3.7
v 2.8 4.4 -3.7
v 1.8 4.4 -3.8
v 2.5 4.4 -3.8
v 2.6 4.4 -3.8
v 2.8 4.4 -3.8
v 2.6 4.4 -3.9
v 2.8 4.4 -3.9
v 2.6 4.4 -4
v 2.8 4.4 -4
v 2.6 4.5 -3.8
v 2.9 4.5 -3.8
v 2.6 4.5 -3.9
v 2.9 4.5 -3.9
v 1.7 4.7 -3.7
v 2.6 4.7 -3.7
v 1.7 4.7 -4
v 2.6 4.7 -4

# faces
f 3/4/1 2/4/1 1/4/1
f 4/4/1 2/4/1 3/4/1
f 7/4/1 6/4/1 5/4/1
f 8/4/1 6/4/1 7/4/1
f 11/4/1 10/4/1 9/4/1
f 12/4/1 10/4/1 11/4/1
f 15/4/1 14/4/1 13/4/1
f 16/4/1 14/4/1 15/4/1
f 19/4/1 18/4/1 17/4/1
f 20/4/1 18/4/1 19/4/1
f 23/4/1 22/4/1 21/4/1
f 24/4/1 22/4/1 23/4/1
f 27/4/1 26/4/1 25/4/1
f 28/4/1 26/4/1 27/4/1
f 31/4/1 30/4/1 29/4/1
f 32/4/1 30/4/1 31/4/1
f 35/4/1 34/4/1 33/4/1
f 36/4/1 34/4/1 35/4/1
f 39/4/1 38/4/1 37/4/1
f 40/4/1 38/4/1 39/4/1
f 43/4/1 42/4/1 41/4/1
f 44/4/1 42/4/1 43/4/1
f 47/5/1 46/5/1 45/5/1
f 48/5/1 46/5/1 47/5/1
f 49/3/1 48/3/1 47/3/1
f 50/3/1 48/3/1 49/3/1
f 51/4/2 52/4/2 53/4/2
f 53/4/2 52/4/2 54/4/2
f 55/4/2 56/4/2 57/4/2
f 57/4/2 56/4/2 58/4/2
f 59/4/2 60/4/2 61/4/2
f 61/4/2 60/4/2 62/4/2
f 63/4/2 64/4/2 65/4/2
f 65/4/2 64/4/2 66/4/2
f 67/4/2 68/4/2 69/4/2
f 69/4/2 68/4/2 70/4/2
f 71/4/2 72/4/2 73/4/2
f 73/4/2 72/4/2 74/4/2
f 75/4/2 76/4/2 77/4/2
f 77/4/2 76/4/2 78/4/2
f 79/4/2 80/4/2 81/4/2
f 81/4/2 80/4/2 82/4/2
f 83/4/2 84/4/2 85/4/2
f 85/4/2 84/4/2 86/4/2
f 87/4/2 88/4/2 89/4/2
f 89/4/2 88/4/2 90/4/2
f 91/4/2 92/4/2 93/4/2
f 93/4/2 92/4/2 94/4/2
f 91/4/2 93/4/2 95/4/2
f 94/4/2 92/4/2 96/4/2
f 91/4/2 95/4/2 97/4/2
f 95/4/2 96/4/2 97/4/2
f 96/4/2 92/4/2 98/4/2
f 97/4/2 96/4/2 98/4/2
f 91/4/2 97/4/2 99/4/2
f 99/4/2 97/4/2 100/4/2
f 98/4/2 92/4/2 101/4/2
f 101/4/2 92/4/2 102/4/2
f 103/4/2 104/4/2 107/4/2
f 105/4/2 106/4/2 108/4/2
f 103/4/2 107/4/2 109/4/2
f 107/4/2 108/4/2 109/4/2
f 108/4/2 106/4/2 110/4/2
f 109/4/2 108/4/2 110/4/2
f 111/5/2 112/5/2 113/5/2
f 113/5/2 112/5/2 114/5/2
f 115/5/2 116/5/2 118/5/2
f 118/5/2 116/5/2 119/5/2
f 117/4/2 118/4/2 121/4/2
f 118/5/2 119/5/2 122/5/2
f 121/4/2 118/4/2 122/4/2
f 119/4/2 120/4/2 123/4/2
f 122/5/2 119/5/2 123/5/2
f 123/4/2 120/4/2 124/4/2
f 122/5/2 123/5/2 125/5/2
f 125/5/2 123/5/2 126/5/2
f 127/5/2 128/5/2 129/5/2
f 129/5/2 128/5/2 130/5/2
f 129/3/2 130/3/2 131/3/2
f 131/3/2 130/3/2 132/3/2
f 133/4/2 134/4/2 137/4/2
f 137/4/2 134/4/2 138/4/2
f 135/4/2 136/4/2 139/4/2
f 139/4/2 136/4/2 140/4/2
f 141/5/2 142/5/2 143/5/2
f 143/5/2 142/5/2 144/5/2
f 145/5/2 146/5/2 147/5/2
f 147/5/2 146/5/2 148/5/2
f 151/4/3 150/4/3 149/4/3
f 152/4/3 150/4/3 151/4/3
f 153/4/3 151/4/3 149/4/3
f 154/4/3 151/4/3 153/4/3
f 155/4/3 151/4/3 154/4/3
f 156/4/3 151/4/3 155/4/3
f 157/4/3 151/4/3 156/4/3
f 158/4/3 151/4/3 157/4/3
f 159/4/3 153/4/3 149/4/3
f 160/4/3 155/4/3 154/4/3
f 161/4/3 155/4/3 160/4/3
f 162/4/3 157/4/3 156/4/3
f 163/4/3 157/4/3 162/4/3
f 164/4/3 151/4/3 158/4/3
f 165/4/3 163/4/3 162/4/3
f 165/4/3 164/4/3 163/4/3
f 165/4/3 161/4/3 160/4/3
f 165/4/3 159/4/3 149/4/3
f 165/4/3 162/4/3 161/4/3
f 165/4/3 160/4/3 159/4/3
f 166/4/3 164/4/3 165/4/3
f 167/4/3 164/4/3 166/4/3
f 168/4/3 164/4/3 167/4/3
f 169/4/3 164/4/3 168/4/3
f 170/4/3 151/4/3 164/4/3
f 170/4/3 164/4/3 169/4/3
f 171/4/3 165/4/3 149/4/3
f 172/4/3 167/4/3 166/4/3
f 173/4/3 167/4/3 172/4/3
f 174/4/3 169/4/3 168/4/3
f 175/4/3 169/4/3 174/4/3
f 176/4/3 151/4/3 170/4/3
f 177/4/3 173/4/3 172/4/3
f 177/4/3 176/4/3 175/4/3
f 177/4/3 175/4/3 174/4/3
f 177/4/3 171/4/3 149/4/3
f 177/4/3 174/4/3 173/4/3
f 177/4/3 172/4/3 171/4/3
f 178/4/3 176/4/3 177/4/3
f 179/4/3 176/4/3 178/4/3
f 180/4/3 176/4/3 179/4/3
f 181/4/3 176/4/3 180/4/3
f 182/4/3 151/4/3 176/4/3
f 182/4/3 176/4/3 181/4/3
f 183/4/3 177/4/3 149/4/3
f 184/4/3 179/4/3 178/4/3
f 185/4/3 179/4/3 184/4/3
f 186/4/3 181/4/3 180/4/3
f 187/4/3 181/4/3 186/4/3
f 188/4/3 151/4/3 182/4/3
f 189/4/3 185/4/3 184/4/3
f 189/4/3 188/4/3 187/4/3
f 189/4/3 151/4/3 188/4/3
f 189/4/3 187/4/3 186/4/3
f 189/4/3 186/4/3 185/4/3
f 189/4/3 184/4/3 183/4/3
f 190/4/3 150/4/3 152/4/3
f 191/4/3 189/4/3 183/4/3
f 191/4/3 190/4/3 189/4/3
f 191/4/3 183/4/3 149/4/3
f 192/4/3 190/4/3 191/4/3
f 193/4/3 190/4/3 192/4/3
f 194/4/3 150/4/3 190/4/3
f 194/4/3 190/4/3 193/4/3
f 195/4/3 193/4/3 192/4/3
f 196/4/3 193/4/3 195/4/3
f 197/4/3 193/4/3 196/4/3
f 198/4/3 193/4/3 197/4/3
f 207/1/3 202/1/3 201/1/3
f 208/1/3 202/1/3 207/1/3
f 209/1/3 204/1/3 203/1/3
f 210/1/3 204/1/3 209/1/3
f 211/1/3 206/1/3 205/1/3
f 212/1/3 206/1/3 211/1/3
f 219/1/3 214/1/3 213/1/3
f 220/1/3 214/1/3 219/1/3
f 221/1/3 216/1/3 215/1/3
f 222/1/3 216/1/3 221/1/3
f 223/1/3 218/1/3 217/1/3
f 224/1/3 218/1/3 223/1/3
f 231/1/3 226/1/3 225/1/3
f 232/1/3 226/1/3 231/1/3
f 233/1/3 228/1/3 227/1/3
f 234/1/3 228/1/3 233/1/3
f 235/1/3 230/1/3 229/1/3
f 236/1/3 230/1/3 235/1/3
f 237/2/3 200/2/3 199/2/3
f 238/2/3 200/2/3 237/2/3
f 245/5/3 240/5/3 239/5/3
f 246/5/3 240/5/3 245/5/3
f 248/5/3 242/5/3 241/5/3
f 249/5/3 242/5/3 248/5/3
f 250/5/3 242/5/3 249/5/3
f 251/5/3 247/5/3 246/5/3
f 252/3/3 248/3/3 247/3/3
f 252/5/3 247/5/3 251/5/3
f 253/5/3 249/5/3 248/5/3
f 253/3/3 248/3/3 252/3/3
f 254/5/3 244/5/3 243/5/3
f 255/5/3 249/5/3 253/5/3
f 256/5/3 249/5/3 255/5/3
f 257/5/3 244/5/3 254/5/3
f 258/5/3 244/5/3 257/5/3
f 261/4/3 260/4/3 259/4/3
f 262/4/3 260/4/3 261/4/3
f 263/4/4 264/4/4 265/4/4
f 265/4/4 264/4/4 266/4/4
f 267/5/4 268/5/4 273/5/4
f 273/5/4 268/5/4 274/5/4
f 269/5/4 270/5/4 276/5/4
f 276/5/4 270/5/4 277/5/4
f 277/5/4 270/5/4 278/5/4
f 274/5/4 275/5/4 279/5/4
f 275/3/4 276/3/4 280/3/4
f 279/5/4 275/5/4 280/5/4
f 276/5/4 277/5/4 281/5/4
f 280/3/4 276/3/4 281/3/4
f 271/5/4 272/5/4 282/5/4
f 281/5/4 277/5/4 283/5/4
f 283/5/4 277/5/4 284/5/4
f 282/5/4 272/5/4 285/5/4
f 285/5/4 272/5/4 286/5/4
f 287/4/4 288/4/4 289/4/4
f 289/4/4 288/4/4 290/4/4
f 287/4/4 289/4/4 291/4/4
f 291/4/4 289/4/4 292/4/4
f 292/4/4 289/4/4 293/4/4
f 293/4/4 289/4/4 294/4/4
f 287/4/4 291/4/4 295/4/4
f 291/1/4 292/1/4 295/1/4
f 292/4/4 293/4/4 296/4/4
f 295/1/4 292/1/4 296/1/4
f 293/1/4 294/1/4 297/1/4
f 296/4/4 293/4/4 297/4/4
f 294/4/4 289/4/4 298/4/4
f 297/1/4 294/1/4 298/1/4
f 296/4/4 297/4/4 299/4/4
f 295/4/4 296/4/4 299/4/4
f 297/4/4 298/4/4 299/4/4
f 287/4/4 295/4/4 299/4/4
f 299/4/4 298/4/4 300/4/4
f 300/4/4 298/4/4 301/4/4
f 298/4/4 289/4/4 302/4/4
f 301/4/4 298/4/4 302/4/4
f 287/4/4 299/4/4 303/4/4
f 299/1/4 300/1/4 303/1/4
f 300/4/4 301/4/4 304/4/4
f 303/1/4 300/1/4 304/1/4
f 301/1/4 302/1/4 305/1/4
f 304/4/4 301/4/4 305/4/4
f 302/4/4 289/4/4 306/4/4
f 305/1/4 302/1/4 306/1/4
f 287/4/4 303/4/4 307/4/4
f 304/4/4 305/4/4 307/4/4
f 305/4/4 306/4/4 307/4/4
f 303/4/4 304/4/4 307/4/4
f 307/4/4 306/4/4 308/4/4
f 308/4/4 306/4/4 309/4/4
f 306/4/4 289/4/4 310/4/4
f 309/4/4 306/4/4 310/4/4
f 287/4/4 307/4/4 311/4/4
f 307/1/4 308/1/4 311/1/4
f 308/4/4 309/4/4 312/4/4
f 311/1/4 308/1/4 312/1/4
f 309/1/4 310/1/4 313/1/4
f 312/4/4 309/4/4 313/4/4
f 310/4/4 289/4/4 314/4/4
f 313/1/4 310/1/4 314/1/4
f 289/2/4 290/2/4 315/2/4
f 314/4/4 289/4/4 315/4/4
f 313/4/4 314/4/4 315/4/4
f 311/4/4 312/4/4 315/4/4
f 312/4/4 313/4/4 315/4/4
f 290/4/4 288/4/4 316/4/4
f 315/2/4 290/2/4 316/2/4
f 311/4/4 315/4/4 317/4/4
f 287/4/4 311/4/4 317/4/4
f 315/4/4 316/4/4 317/4/4
f 317/4/4 316/4/4 318/4/4
f 318/4/4 316/4/4 319/4/4
f 316/4/4 288/4/4 320/4/4
f 319/4/4 316/4/4 320/4/4
f 318/4/4 319/4/4 321/4/4
f 321/4/4 319/4/4 322/4/4
f 322/4/4 319/4/4 323/4/4
f 323/4/4 319/4/4 324/4/4
f 327/4/5 326/4/5 325/4/5
f 328/4/5 326/4/5 327/4/5
f 331/5/5 330/5/5 329/5/5
f 332/5/5 330/5/5 331/5/5
f 335/5/5 334/5/5 333/5/5
f 336/5/5 334/5/5 335/5/5
f 343/4/5 338/4/5 337/4/5
f 344/4/5 338/4/5 343/4/5
f 345/4/5 340/4/5 339/4/5
f 346/4/5 340/4/5 345/4/5
f 347/4/5 342/4/5 341/4/5
f 348/4/5 342/4/5 347/4/5
f 355/4/5 350/4/5 349/4/5
f 356/4/5 350/4/5 355/4/5
f 357/4/5 352/4/5 351/4/5
f 358/4/5 352/4/5 357/4/5
f 359/4/5 354/4/5 353/4/5
f 360/4/5 354/4/5 359/4/5
f 365/5/5 362/5/5 361/5/5
f 366/5/5 362/5/5 365/5/5
f 367/5/5 364/5/5 363/5/5
f 368/5/5 364/5/5 367/5/5
f 375/4/5 370/4/5 369/4/5
f 376/4/5 370/4/5 375/4/5
f 377/4/5 372/4/5 371/4/5
f 378/4/5 372/4/5 377/4/5
f 379/4/5 374/4/5 373/4/5
f 380/4/5 374/4/5 379/4/5
f 383/4/5 382/4/5 381/4/5
f 384/4/5 382/4/5 383/4/5
f 387/4/5 386/4/5 385/4/5
f 388/4/5 386/4/5 387/4/5
f 391/4/5 390/4/5 389/4/5
f 392/4/5 390/4/5 391/4/5
f 395/4/5 394/4/5 393/4/5
f 396/4/5 394/4/5 395/4/5
f 400/5/5 398/5/5 397/5/5
f 400/5/5 399/5/5 398/5/5
f 401/5/5 399/5/5 400/5/5
f 402/5/5 399/5/5 401/5/5
f 405/4/5 404/4/5 403/4/5
f 406/4/5 404/4/5 405/4/5
f 407/5/6 408/5/6 409/5/6
f 409/5/6 408/5/6 410/5/6
f 411/4/6 412/4/6 417/4/6
f 417/4/6 412/4/6 418/4/6
f 413/4/6 414/4/6 419/4/6
f 419/4/6 414/4/6 420/4/6
f 415/4/6 416/4/6 421/4/6
f 421/4/6 416/4/6 422/4/6
f 423/4/6 424/4/6 429/4/6
f 429/4/6 424/4/6 430/4/6
f 425/4/6 426/4/6 431/4/6
f 431/4/6 426/4/6 432/4/6
f 427/4/6 428/4/6 433/4/6
f 433/4/6 428/4/6 434/4/6
f 435/4/6 436/4/6 441/4/6
f 441/4/6 436/4/6 442/4/6
f 437/4/6 438/4/6 443/4/6
f 443/4/6 438/4/6 444/4/6
f 439/4/6 440/4/6 445/4/6
f 445/4/6 440/4/6 446/4/6
f 447/5/6 448/5/6 449/5/6
f 449/5/6 448/5/6 450/5/6
f 451/4/6 452/4/6 455/4/6
f 455/4/6 452/4/6 456/4/6
f 453/4/6 454/4/6 457/4/6
f 457/4/6 454/4/6 458/4/6
f 459/4/6 460/4/6 461/4/6
f 461/4/6 460/4/6 462/4/6
f 463/5/6 464/5/6 465/5/6
f 465/5/6 464/5/6 466/5/6
f 467/4/6 468/4/6 469/4/6
f 469/4/6 468/4/6 470/4/6
