# MagicaVoxel @ Ephtracy

# group
o 

# material
mtllib weapon.mtl
usemtl palette

# normals
vn -1 0 0
vn 1 0 0
vn 0 0 1
vn 0 0 -1
vn 0 -1 0
vn 0 1 0

# texcoords
vt 0.533203 0.5
vt 0.974609 0.5
vt 0.986328 0.5

# verts
v 3.5 2.5 -2.2
v 3.5 2.5 -2.3
v 3.5 2.6 -2.2
v 3.5 2.6 -2.3
v 3.7 2.4 -2.2
v 3.7 2.4 -2.3
v 3.7 2.5 -2.1
v 3.7 2.5 -2.2
v 3.7 2.5 -2.3
v 3.7 2.5 -2.4
v 3.7 2.6 -2.1
v 3.7 2.6 -2.2
v 3.7 2.6 -2.3
v 3.7 2.6 -2.4
v 3.7 2.8 -2.2
v 3.7 2.8 -2.3
v 3.8 2.3 -2.2
v 3.8 2.3 -2.3
v 3.8 2.4 -2.1
v 3.8 2.4 -2.2
v 3.8 2.4 -2.3
v 3.8 2.4 -2.4
v 3.8 2.5 -2.1
v 3.8 2.5 -2.2
v 3.8 2.5 -2.3
v 3.8 2.5 -2.4
v 3.9 2.1 -2.2
v 3.9 2.1 -2.3
v 3.9 2.3 -2.2
v 3.9 2.3 -2.3
v 4.5 2.4 -2.3
v 4.5 2.4 -2.4
v 4.5 2.5 -2.3
v 4.5 2.5 -2.4
v 4.8 2.3 -2.2
v 4.8 2.3 -2.3
v 4.8 2.4 -2.2
v 4.8 2.4 -2.3
v 4.9 2.2 -2.2
v 4.9 2.2 -2.3
v 4.9 2.3 -2.2
v 4.9 2.3 -2.3
v 5 2.1 -2.2
v 5 2.1 -2.3
v 5 2.2 -2.2
v 5 2.2 -2.3
v 5.1 2 -2.2
v 5.1 2 -2.3
v 5.1 2.1 -2.2
v 5.1 2.1 -2.3
v 5.1 2.2 -2.2
v 5.1 2.2 -2.3
v 5.1 2.4 -2.2
v 5.1 2.4 -2.3
v 3.8 2.7 -2.2
v 3.8 2.7 -2.3
v 3.8 2.8 -2.2
v 3.8 2.8 -2.3
v 4.1 2.1 -2.2
v 4.1 2.1 -2.3
v 4.1 2.3 -2.2
v 4.1 2.3 -2.3
v 4.1 2.4 -2.3
v 4.1 2.4 -2.4
v 4.1 2.5 -2.3
v 4.1 2.5 -2.4
v 4.7 2.3 -2.2
v 4.7 2.3 -2.3
v 4.7 2.4 -2.1
v 4.7 2.4 -2.2
v 4.7 2.4 -2.3
v 4.7 2.4 -2.4
v 4.7 2.5 -2.1
v 4.7 2.5 -2.2
v 4.7 2.5 -2.3
v 4.7 2.5 -2.4
v 4.8 2.5 -2.1
v 4.8 2.5 -2.2
v 4.8 2.5 -2.3
v 4.8 2.5 -2.4
v 4.8 2.6 -2.1
v 4.8 2.6 -2.2
v 4.8 2.6 -2.3
v 4.8 2.6 -2.4
v 4.8 2.7 -2.2
v 4.8 2.7 -2.3
v 4.9 2.3 -2.2
v 4.9 2.3 -2.3
v 4.9 2.4 -2.2
v 4.9 2.4 -2.3
v 5 2.2 -2.2
v 5 2.2 -2.3
v 5 2.3 -2.2
v 5 2.3 -2.3
v 5.1 2.5 -2.2
v 5.1 2.5 -2.3
v 5.1 2.6 -2.2
v 5.1 2.6 -2.3
v 5.2 2 -2.2
v 5.2 2 -2.3
v 5.2 2.5 -2.2
v 5.2 2.5 -2.3
v 3.7 2.5 -2.1
v 3.7 2.6 -2.1
v 3.8 2.4 -2.1
v 3.8 2.5 -2.1
v 4.1 2.4 -2.1
v 4.1 2.5 -2.1
v 4.5 2.4 -2.1
v 4.5 2.5 -2.1
v 4.7 2.4 -2.1
v 4.7 2.5 -2.1
v 4.8 2.5 -2.1
v 4.8 2.6 -2.1
v 3.5 2.5 -2.2
v 3.5 2.6 -2.2
v 3.7 2.4 -2.2
v 3.7 2.5 -2.2
v 3.7 2.6 -2.2
v 3.7 2.8 -2.2
v 3.8 2.3 -2.2
v 3.8 2.4 -2.2
v 3.8 2.5 -2.2
v 3.8 2.7 -2.2
v 3.8 2.8 -2.2
v 3.9 2.1 -2.2
v 3.9 2.3 -2.2
v 4.1 2.1 -2.2
v 4.1 2.3 -2.2
v 4.1 2.4 -2.2
v 4.5 2.3 -2.2
v 4.5 2.4 -2.2
v 4.7 2.3 -2.2
v 4.7 2.4 -2.2
v 4.7 2.5 -2.2
v 4.8 2.3 -2.2
v 4.8 2.4 -2.2
v 4.8 2.5 -2.2
v 4.8 2.6 -2.2
v 4.8 2.7 -2.2
v 4.9 2.2 -2.2
v 4.9 2.3 -2.2
v 4.9 2.4 -2.2
v 5 2.1 -2.2
v 5 2.2 -2.2
v 5 2.3 -2.2
v 5.1 2 -2.2
v 5.1 2.1 -2.2
v 5.1 2.2 -2.2
v 5.1 2.4 -2.2
v 5.1 2.5 -2.2
v 5.1 2.6 -2.2
v 5.2 2 -2.2
v 5.2 2.5 -2.2
v 3.5 2.5 -2.3
v 3.5 2.6 -2.3
v 3.7 2.4 -2.3
v 3.7 2.5 -2.3
v 3.7 2.6 -2.3
v 3.7 2.8 -2.3
v 3.8 2.3 -2.3
v 3.8 2.4 -2.3
v 3.8 2.5 -2.3
v 3.8 2.7 -2.3
v 3.8 2.8 -2.3
v 3.9 2.1 -2.3
v 3.9 2.3 -2.3
v 4.1 2.1 -2.3
v 4.1 2.3 -2.3
v 4.1 2.4 -2.3
v 4.1 2.5 -2.3
v 4.5 2.3 -2.3
v 4.5 2.4 -2.3
v 4.5 2.5 -2.3
v 4.7 2.3 -2.3
v 4.7 2.4 -2.3
v 4.7 2.5 -2.3
v 4.8 2.3 -2.3
v 4.8 2.4 -2.3
v 4.8 2.5 -2.3
v 4.8 2.6 -2.3
v 4.8 2.7 -2.3
v 4.9 2.2 -2.3
v 4.9 2.3 -2.3
v 4.9 2.4 -2.3
v 5 2.1 -2.3
v 5 2.2 -2.3
v 5 2.3 -2.3
v 5.1 2 -2.3
v 5.1 2.1 -2.3
v 5.1 2.2 -2.3
v 5.1 2.4 -2.3
v 5.1 2.5 -2.3
v 5.1 2.6 -2.3
v 5.2 2 -2.3
v 5.2 2.5 -2.3
v 3.7 2.5 -2.4
v 3.7 2.6 -2.4
v 3.8 2.4 -2.4
v 3.8 2.5 -2.4
v 4.1 2.4 -2.4
v 4.1 2.5 -2.4
v 4.5 2.4 -2.4
v 4.5 2.5 -2.4
v 4.7 2.4 -2.4
v 4.7 2.5 -2.4
v 4.8 2.5 -2.4
v 4.8 2.6 -2.4
v 5.1 2 -2.2
v 5.2 2 -2.2
v 5.1 2 -2.3
v 5.2 2 -2.3
v 3.9 2.1 -2.2
v 4.1 2.1 -2.2
v 5 2.1 -2.2
v 5.1 2.1 -2.2
v 3.9 2.1 -2.3
v 4.1 2.1 -2.3
v 5 2.1 -2.3
v 5.1 2.1 -2.3
v 4.9 2.2 -2.2
v 5 2.2 -2.2
v 4.9 2.2 -2.3
v 5 2.2 -2.3
v 3.8 2.3 -2.2
v 3.9 2.3 -2.2
v 4.1 2.3 -2.2
v 4.5 2.3 -2.2
v 4.7 2.3 -2.2
v 4.8 2.3 -2.2
v 4.9 2.3 -2.2
v 3.8 2.3 -2.3
v 3.9 2.3 -2.3
v 4.1 2.3 -2.3
v 4.5 2.3 -2.3
v 4.7 2.3 -2.3
v 4.8 2.3 -2.3
v 4.9 2.3 -2.3
v 3.8 2.4 -2.1
v 4.1 2.4 -2.1
v 4.5 2.4 -2.1
v 4.7 2.4 -2.1
v 3.7 2.4 -2.2
v 3.8 2.4 -2.2
v 4.1 2.4 -2.2
v 4.5 2.4 -2.2
v 4.7 2.4 -2.2
v 4.8 2.4 -2.2
v 4.9 2.4 -2.2
v 5.1 2.4 -2.2
v 3.7 2.4 -2.3
v 3.8 2.4 -2.3
v 4.1 2.4 -2.3
v 4.5 2.4 -2.3
v 4.7 2.4 -2.3
v 4.8 2.4 -2.3
v 4.9 2.4 -2.3
v 5.1 2.4 -2.3
v 3.8 2.4 -2.4
v 4.1 2.4 -2.4
v 4.5 2.4 -2.4
v 4.7 2.4 -2.4
v 3.7 2.5 -2.1
v 3.8 2.5 -2.1
v 4.7 2.5 -2.1
v 4.8 2.5 -2.1
v 3.5 2.5 -2.2
v 3.7 2.5 -2.2
v 3.8 2.5 -2.2
v 4.7 2.5 -2.2
v 4.8 2.5 -2.2
v 3.5 2.5 -2.3
v 3.7 2.5 -2.3
v 3.8 2.5 -2.3
v 4.1 2.5 -2.3
v 4.5 2.5 -2.3
v 4.7 2.5 -2.3
v 4.8 2.5 -2.3
v 3.7 2.5 -2.4
v 3.8 2.5 -2.4
v 4.1 2.5 -2.4
v 4.5 2.5 -2.4
v 4.7 2.5 -2.4
v 4.8 2.5 -2.4
v 5 2.2 -2.2
v 5.1 2.2 -2.2
v 5 2.2 -2.3
v 5.1 2.2 -2.3
v 4.9 2.3 -2.2
v 5 2.3 -2.2
v 4.9 2.3 -2.3
v 5 2.3 -2.3
v 5.1 2.5 -2.2
v 5.2 2.5 -2.2
v 5.1 2.5 -2.3
v 5.2 2.5 -2.3
v 3.7 2.6 -2.1
v 4.8 2.6 -2.1
v 3.5 2.6 -2.2
v 3.7 2.6 -2.2
v 4.8 2.6 -2.2
v 5.1 2.6 -2.2
v 3.5 2.6 -2.3
v 3.7 2.6 -2.3
v 4.8 2.6 -2.3
v 5.1 2.6 -2.3
v 3.7 2.6 -2.4
v 4.8 2.6 -2.4
v 3.8 2.7 -2.2
v 4.8 2.7 -2.2
v 3.8 2.7 -2.3
v 4.8 2.7 -2.3
v 3.7 2.8 -2.2
v 3.8 2.8 -2.2
v 3.7 2.8 -2.3
v 3.8 2.8 -2.3

# faces
f 3/2/1 2/2/1 1/2/1
f 4/2/1 2/2/1 3/2/1
f 8/2/1 6/2/1 5/2/1
f 9/2/1 6/2/1 8/2/1
f 11/2/1 8/2/1 7/2/1
f 12/2/1 8/2/1 11/2/1
f 13/2/1 10/2/1 9/2/1
f 14/2/1 10/2/1 13/2/1
f 15/2/1 13/2/1 12/2/1
f 16/2/1 13/2/1 15/2/1
f 20/2/1 18/2/1 17/2/1
f 21/2/1 18/2/1 20/2/1
f 23/2/1 20/2/1 19/2/1
f 24/2/1 20/2/1 23/2/1
f 25/2/1 22/2/1 21/2/1
f 26/2/1 22/2/1 25/2/1
f 29/3/1 28/3/1 27/3/1
f 30/3/1 28/3/1 29/3/1
f 33/2/1 32/2/1 31/2/1
f 34/2/1 32/2/1 33/2/1
f 37/2/1 36/2/1 35/2/1
f 38/2/1 36/2/1 37/2/1
f 41/2/1 40/2/1 39/2/1
f 42/2/1 40/2/1 41/2/1
f 45/2/1 44/2/1 43/2/1
f 46/2/1 44/2/1 45/2/1
f 49/2/1 48/2/1 47/2/1
f 50/2/1 48/2/1 49/2/1
f 53/2/1 52/2/1 51/2/1
f 54/2/1 52/2/1 53/2/1
f 55/2/2 56/2/2 57/2/2
f 57/2/2 56/2/2 58/2/2
f 59/3/2 60/3/2 61/3/2
f 61/3/2 60/3/2 62/3/2
f 63/2/2 64/2/2 65/2/2
f 65/2/2 64/2/2 66/2/2
f 67/2/2 68/2/2 70/2/2
f 70/2/2 68/2/2 71/2/2
f 69/2/2 70/2/2 73/2/2
f 73/2/2 70/2/2 74/2/2
f 71/2/2 72/2/2 75/2/2
f 75/2/2 72/2/2 76/2/2
f 77/2/2 78/2/2 81/2/2
f 81/2/2 78/2/2 82/2/2
f 79/2/2 80/2/2 83/2/2
f 83/2/2 80/2/2 84/2/2
f 82/2/2 83/2/2 85/2/2
f 85/2/2 83/2/2 86/2/2
f 87/2/2 88/2/2 89/2/2
f 89/2/2 88/2/2 90/2/2
f 91/2/2 92/2/2 93/2/2
f 93/2/2 92/2/2 94/2/2
f 95/2/2 96/2/2 97/2/2
f 97/2/2 96/2/2 98/2/2
f 99/2/2 100/2/2 101/2/2
f 101/2/2 100/2/2 102/2/2
f 106/2/3 104/2/3 103/2/3
f 107/2/3 106/2/3 105/2/3
f 108/2/3 104/2/3 106/2/3
f 108/2/3 106/2/3 107/2/3
f 109/1/3 108/1/3 107/1/3
f 110/2/3 104/2/3 108/2/3
f 110/1/3 108/1/3 109/1/3
f 111/2/3 110/2/3 109/2/3
f 112/2/3 104/2/3 110/2/3
f 112/2/3 110/2/3 111/2/3
f 113/2/3 104/2/3 112/2/3
f 114/2/3 104/2/3 113/2/3
f 118/2/3 116/2/3 115/2/3
f 119/2/3 116/2/3 118/2/3
f 122/2/3 118/2/3 117/2/3
f 123/2/3 118/2/3 122/2/3
f 124/2/3 120/2/3 119/2/3
f 125/2/3 120/2/3 124/2/3
f 127/2/3 122/2/3 121/2/3
f 128/3/3 127/3/3 126/3/3
f 129/2/3 122/2/3 127/2/3
f 129/3/3 127/3/3 128/3/3
f 130/2/3 122/2/3 129/2/3
f 131/1/3 130/1/3 129/1/3
f 132/1/3 130/1/3 131/1/3
f 133/2/3 132/2/3 131/2/3
f 134/2/3 132/2/3 133/2/3
f 137/2/3 135/2/3 134/2/3
f 138/2/3 135/2/3 137/2/3
f 139/2/3 124/2/3 119/2/3
f 140/2/3 124/2/3 139/2/3
f 142/2/3 138/2/3 137/2/3
f 142/2/3 137/2/3 136/2/3
f 142/2/3 139/2/3 138/2/3
f 143/2/3 139/2/3 142/2/3
f 145/2/3 142/2/3 141/2/3
f 146/2/3 142/2/3 145/2/3
f 148/2/3 145/2/3 144/2/3
f 149/2/3 145/2/3 148/2/3
f 150/2/3 139/2/3 143/2/3
f 151/2/3 139/2/3 150/2/3
f 152/2/3 139/2/3 151/2/3
f 153/2/3 149/2/3 148/2/3
f 153/2/3 148/2/3 147/2/3
f 153/2/3 151/2/3 150/2/3
f 153/2/3 150/2/3 149/2/3
f 154/2/3 151/2/3 153/2/3
f 155/2/4 156/2/4 158/2/4
f 158/2/4 156/2/4 159/2/4
f 157/2/4 158/2/4 162/2/4
f 162/2/4 158/2/4 163/2/4
f 159/2/4 160/2/4 164/2/4
f 164/2/4 160/2/4 165/2/4
f 161/2/4 162/2/4 167/2/4
f 166/3/4 167/3/4 168/3/4
f 167/2/4 162/2/4 169/2/4
f 168/3/4 167/3/4 169/3/4
f 169/2/4 162/2/4 170/2/4
f 169/1/4 170/1/4 172/1/4
f 170/2/4 171/2/4 173/2/4
f 172/1/4 170/1/4 173/1/4
f 173/2/4 171/2/4 174/2/4
f 172/2/4 173/2/4 175/2/4
f 175/2/4 173/2/4 176/2/4
f 176/2/4 177/2/4 179/2/4
f 179/2/4 177/2/4 180/2/4
f 159/2/4 164/2/4 181/2/4
f 181/2/4 164/2/4 182/2/4
f 179/2/4 180/2/4 184/2/4
f 178/2/4 179/2/4 184/2/4
f 180/2/4 181/2/4 184/2/4
f 184/2/4 181/2/4 185/2/4
f 183/2/4 184/2/4 187/2/4
f 187/2/4 184/2/4 188/2/4
f 186/2/4 187/2/4 190/2/4
f 190/2/4 187/2/4 191/2/4
f 185/2/4 181/2/4 192/2/4
f 192/2/4 181/2/4 193/2/4
f 193/2/4 181/2/4 194/2/4
f 190/2/4 191/2/4 195/2/4
f 189/2/4 190/2/4 195/2/4
f 192/2/4 193/2/4 195/2/4
f 191/2/4 192/2/4 195/2/4
f 195/2/4 193/2/4 196/2/4
f 197/2/4 198/2/4 200/2/4
f 199/2/4 200/2/4 201/2/4
f 200/2/4 198/2/4 202/2/4
f 201/2/4 200/2/4 202/2/4
f 202/2/4 198/2/4 204/2/4
f 203/2/4 204/2/4 205/2/4
f 204/2/4 198/2/4 206/2/4
f 205/2/4 204/2/4 206/2/4
f 206/2/4 198/2/4 207/2/4
f 207/2/4 198/2/4 208/2/4
f 211/2/5 210/2/5 209/2/5
f 212/2/5 210/2/5 211/2/5
f 217/3/5 214/3/5 213/3/5
f 218/3/5 214/3/5 217/3/5
f 219/2/5 216/2/5 215/2/5
f 220/2/5 216/2/5 219/2/5
f 223/2/5 222/2/5 221/2/5
f 224/2/5 222/2/5 223/2/5
f 232/2/5 226/2/5 225/2/5
f 233/2/5 226/2/5 232/2/5
f 234/1/5 228/1/5 227/1/5
f 235/2/5 229/2/5 228/2/5
f 235/1/5 228/1/5 234/1/5
f 236/2/5 229/2/5 235/2/5
f 237/2/5 231/2/5 230/2/5
f 238/2/5 231/2/5 237/2/5
f 244/2/5 240/2/5 239/2/5
f 245/1/5 241/1/5 240/1/5
f 245/2/5 240/2/5 244/2/5
f 246/2/5 242/2/5 241/2/5
f 246/1/5 241/1/5 245/1/5
f 247/2/5 242/2/5 246/2/5
f 251/2/5 244/2/5 243/2/5
f 252/2/5 244/2/5 251/2/5
f 255/2/5 248/2/5 247/2/5
f 256/2/5 248/2/5 255/2/5
f 257/2/5 250/2/5 249/2/5
f 258/2/5 250/2/5 257/2/5
f 259/2/5 253/2/5 252/2/5
f 260/2/5 253/2/5 259/2/5
f 261/2/5 255/2/5 254/2/5
f 262/2/5 255/2/5 261/2/5
f 268/2/5 264/2/5 263/2/5
f 269/2/5 264/2/5 268/2/5
f 270/2/5 266/2/5 265/2/5
f 271/2/5 266/2/5 270/2/5
f 272/2/5 268/2/5 267/2/5
f 273/2/5 268/2/5 272/2/5
f 279/2/5 274/2/5 273/2/5
f 280/2/5 274/2/5 279/2/5
f 281/2/5 276/2/5 275/2/5
f 282/2/5 276/2/5 281/2/5
f 283/2/5 278/2/5 277/2/5
f 284/2/5 278/2/5 283/2/5
f 285/2/6 286/2/6 287/2/6
f 287/2/6 286/2/6 288/2/6
f 289/2/6 290/2/6 291/2/6
f 291/2/6 290/2/6 292/2/6
f 293/2/6 294/2/6 295/2/6
f 295/2/6 294/2/6 296/2/6
f 297/2/6 298/2/6 300/2/6
f 300/2/6 298/2/6 301/2/6
f 299/2/6 300/2/6 303/2/6
f 303/2/6 300/2/6 304/2/6
f 301/2/6 302/2/6 305/2/6
f 305/2/6 302/2/6 306/2/6
f 304/2/6 305/2/6 307/2/6
f 307/2/6 305/2/6 308/2/6
f 309/2/6 310/2/6 311/2/6
f 311/2/6 310/2/6 312/2/6
f 313/2/6 314/2/6 315/2/6
f 315/2/6 314/2/6 316/2/6
